<?xml version="1.0" encoding="UTF-8" standalone="no"?>
<svg
   width="210mm"
   height="297mm"
   viewBox="0 0 210 297"
   version="1.1"
   id="svg1217"
   sodipodi:docname="Logo-roxoazul-sombra-luz.svg"
   inkscape:version="1.2.2 (732a01da63, 2022-12-09)"
   xmlns:inkscape="http://www.inkscape.org/namespaces/inkscape"
   xmlns:sodipodi="http://sodipodi.sourceforge.net/DTD/sodipodi-0.dtd"
   xmlns:xlink="http://www.w3.org/1999/xlink"
   xmlns="http://www.w3.org/2000/svg"
   xmlns:svg="http://www.w3.org/2000/svg"
   xmlns:rdf="http://www.w3.org/1999/02/22-rdf-syntax-ns#"
   xmlns:cc="http://creativecommons.org/ns#"
   xmlns:dc="http://purl.org/dc/elements/1.1/">
  <defs
     id="defs1211">
    <linearGradient
       inkscape:collect="always"
       id="linearGradient2653">
      <stop
         style="stop-color:#ffffff;stop-opacity:1;"
         offset="0"
         id="stop2649" />
      <stop
         style="stop-color:#ffffff;stop-opacity:0;"
         offset="1"
         id="stop2651" />
    </linearGradient>
    <linearGradient
       inkscape:collect="always"
       id="linearGradient2399">
      <stop
         style="stop-color:#573f57;stop-opacity:1;"
         offset="0"
         id="stop2395" />
      <stop
         style="stop-color:#030203;stop-opacity:0"
         offset="1"
         id="stop2397" />
    </linearGradient>
    <linearGradient
       inkscape:collect="always"
       xlink:href="#linearGradient2399"
       id="linearGradient2000"
       x1="55.751492"
       y1="170.08928"
       x2="83.209381"
       y2="127.50002"
       gradientUnits="userSpaceOnUse" />
    <linearGradient
       inkscape:collect="always"
       xlink:href="#linearGradient2399"
       id="linearGradient2380"
       gradientUnits="userSpaceOnUse"
       gradientTransform="matrix(1.0070463,-0.04911841,-0.121878,1.01315,5.6276684e-5,-4.7905287e-6)"
       x1="138.82545"
       y1="5.4576945"
       x2="139.60382"
       y2="-3.2988186" />
    <linearGradient
       inkscape:collect="always"
       xlink:href="#linearGradient2399"
       id="linearGradient2401"
       x1="209.04346"
       y1="13.693917"
       x2="208.26674"
       y2="-6.2762165"
       gradientUnits="userSpaceOnUse" />
    <clipPath
       clipPathUnits="userSpaceOnUse"
       id="clipPath2497">
      <path
         id="path2499"
         style="fill:#ff0000;fill-opacity:1;fill-rule:nonzero;stroke:none;stroke-width:0.251752"
         d="m 135.78381,-17.678533 -4.49731,5.562444 c 0.44635,0.371882 0.58302,0.982374 -0.0962,1.413277 -0.007,0.0039 -0.0148,0.0062 -0.0193,0.0124 -0.007,0.0095 -0.007,0.02174 -0.0129,0.03192 -0.0277,0.04397 -0.0691,0.07936 -0.10186,0.119859 -9.4e-4,0.0011 -0.002,0.0023 -0.003,0.0035 l -3.6e-4,4.5e-4 c -0.004,0.009 -0.008,0.01386 -0.0114,0.03161 -0.0274,0.04215 -0.0456,0.08388 -0.0584,0.131696 -0.004,0.01646 -0.003,0.03352 -0.0103,0.04932 -0.009,0.02284 -0.0244,0.04331 -0.0369,0.0647 -0.003,0.0094 -0.005,0.01906 -0.008,0.02839 0.005,-0.0015 0.0123,-0.0062 0.0122,-0.0036 -0.001,0.01545 -0.0128,0.02985 -0.0168,0.04518 -0.003,0.01285 0.001,0.02589 -0.005,0.03866 -0.002,0.0089 -0.0109,0.0154 -0.0162,0.02313 -0.009,0.02424 -0.0553,0.1604388 -0.0419,0.116563 9.1e-4,8.24e-4 0.003,0.0013 0.003,0.0027 0.003,0.0093 -0.004,0.021268 -0.002,0.031082 0.006,0.031731 0.0414,0.07037 0.0346,0.1050996 0.0164,0.067191 0.0374,0.1305824 0.0691,0.1904657 0.0333,0.033952 0.0197,0.08221 0.0391,0.123187 8.7e-4,0.00244 3e-5,0.00387 0.004,0.00692 4.9e-4,1.757e-4 0.002,-1.003e-4 0.002,2.71e-4 9.7e-4,0.0036 0.003,0.00646 0.005,0.00996 0.002,0.00328 0.008,0.00944 0.005,0.00923 -0.002,2.18e-5 -4.8e-4,-0.00252 -0.003,-0.00348 0.0119,0.029451 0.0239,0.058975 0.0358,0.088401 0.0137,0.020639 0.0301,0.039558 0.041,0.062076 -0.006,0.019593 0.0128,0.045465 0.0163,0.051473 -0.005,0.041383 -0.002,-0.00331 0.026,0.067759 0.006,0.013996 0.007,0.030032 0.0105,0.045011 0.008,0.022814 0.0145,0.046092 0.0237,0.06822 0.0465,0.1119696 0.0124,0.011746 0.0283,0.060334 0.038,0.09242 0.0635,0.1892824 0.10308,0.2796106 -1.6e-4,0.022914 -0.004,0.046805 -1.5e-4,0.068783 3.6e-4,0.00397 0.005,-0.00861 0.0105,-0.00981 0.0101,-0.00266 0.0194,0.060303 0.0248,0.1027437 0.004,0.00733 -4.5e-4,-0.00468 0.0354,0.078246 0.0298,-0.1150842 0.0213,0.047895 0.029,0.077737 0.0126,-0.00746 0.0217,-0.011354 0.006,0.014169 0.002,0.00221 0.007,0.00439 0.006,0.00797 -0.007,0.039218 8.9e-4,0.02135 0.0341,0.075216 -0.075,-0.049481 0.0421,0.079236 0.0302,0.061037 -0.0198,-0.030056 -0.0337,-0.060803 0.005,0.00739 0.0264,-0.00474 0.004,0.057867 0.0541,0.060468 0.007,0.024839 0.0223,0.019784 0.0362,0.035275 0.005,0.00479 0.003,0.01351 0.006,0.019233 0.008,0.01242 0.0206,0.020889 0.0301,0.032153 0.0376,6.827e-4 0.0337,0.037928 0.0468,0.048075 0.0266,0.020453 0.0432,-0.029631 0.0472,0.039219 0.0393,-0.00111 0.0421,0.036548 0.0693,0.050715 0.008,0.00413 0.0209,0.00134 0.0268,0.00723 0.007,0.00628 0.005,0.017714 0.007,0.026324 0.009,0.00207 0.0201,7.891e-4 0.0275,0.00635 0.007,0.00515 0.005,0.016763 0.011,0.022936 0.0178,0.019141 0.0562,0.040608 0.0812,0.049005 0.005,0.00587 0.009,0.013702 0.0146,0.017821 0.0234,0.015557 0.0231,-0.00161 0.043,0.019235 0.005,0.00587 0.006,0.015251 0.0117,0.021353 0.0103,0.010879 0.0253,0.015908 0.0369,0.025233 0.037,0.024927 0.0691,0.056816 0.10822,0.078113 0.008,0.00233 0.0167,0.0026 0.0227,0.00698 0.0171,0.012466 0.0249,0.039085 0.0436,0.0513 0.006,0.00409 0.0146,0.00514 0.022,0.00789 0.007,0.00505 0.014,0.010548 0.0208,0.015435 0.0412,0.060901 -0.0127,-0.0097 0.0433,0.036361 0.008,0.0063 0.009,0.018702 0.0171,0.023882 0.009,0.00596 0.0246,0.00115 0.0335,0.00732 0.009,0.00596 0.0106,0.019308 0.0175,0.027089 0.008,0.00774 0.0177,0.013143 0.0266,0.019723 0.0441,0.00439 0.0653,0.037111 0.0931,0.064824 0.003,0.00294 -0.0113,-0.00462 -0.008,-0.00894 0.003,-0.00413 0.0103,0.00138 0.0146,0.00172 0.008,0.00952 0.0166,0.018192 0.0247,0.027436 0.0468,0.01251 0.079,0.039924 0.11485,0.067627 0.007,0.00509 -0.0228,-0.023928 0.0101,-0.00864 0.01,0.00489 0.0175,0.012979 0.0262,0.019436 0.0296,0.020878 0.0286,0.022673 0.0672,0.035795 0.0124,0.00419 0.0527,0.00677 0.0385,0.00958 -0.01,0.00155 -0.12391,-0.032127 -0.0105,-2.22e-5 0.0187,0.0052 0.12251,0.049544 0.16431,0.071269 -3.5e-4,-0.00515 -0.003,-0.013517 5.7e-4,-0.012926 0.0111,0.00197 0.0167,0.014194 0.0262,0.019438 0.048,0.026752 0.10247,0.040987 0.1521,0.06502 0.0102,0.00574 0.0198,0.012182 0.0302,0.017498 0.004,-4.73e-4 0.009,-0.00189 0.0134,-0.00204 0.003,-1.79e-4 0.005,0.00205 0.008,0.00204 0.0107,0.00114 0.025,-0.00225 0.0348,4.773e-4 0.002,4.959e-4 0.003,8.564e-4 0.005,0.00105 0.007,3.302e-4 0.017,-0.00168 0.0239,1.74e-4 10e-4,1.355e-4 0.003,0.0015 0.003,0.00183 0.006,4.525e-4 0.0126,6.589e-4 0.0183,9.357e-4 0.0142,0.00197 0.0277,0.00456 0.0414,0.00752 0.0107,-0.00167 0.02,0.00322 0.0297,0.00446 0.002,4.959e-4 0.004,-5.611e-4 0.006,-5.62e-5 0.002,4.959e-4 0.004,0.00165 0.005,0.00252 0.003,3.04e-4 0.007,0.0011 0.0105,0.00147 0.0112,0.00617 0.004,9.094e-4 0.0181,0.00358 5.7e-4,6.78e-5 0.001,5.068e-4 0.002,7.209e-4 -1.4e-4,1.665e-4 6.2e-4,0.00118 4.2e-4,0.00104 -3.2e-4,-3.737e-4 0.002,-1.681e-4 0.002,-3.144e-4 0,0 4e-4,2.927e-4 4e-4,2.927e-4 -0.002,-0.00291 -0.002,-0.00151 0.0156,-0.00105 0.001,1.355e-4 0.002,7.208e-4 0.003,8.124e-4 -0.003,5.503e-4 -0.006,6.582e-4 -0.008,9.621e-4 0.002,1.246e-4 0.004,7.36e-5 0.006,2.218e-4 0.002,-3.144e-4 0.003,-7.752e-4 0.004,-0.00117 7.8e-4,2.141e-4 0.002,3.496e-4 0.003,5.637e-4 7e-5,-3.128e-4 -4.1e-4,-6.572e-4 -4.2e-4,-0.00104 0,0 3.6e-4,-4.499e-4 3.6e-4,-4.499e-4 3.7e-4,-8.88e-5 7.7e-4,2.141e-4 0.001,1.355e-4 3.7e-4,-4.499e-4 8.1e-4,9.567e-4 0.002,0.00117 8.2e-4,0.00133 0.001,2.818e-4 0.002,-2.18e-5 7.5e-4,-5.285e-4 0.002,-7.643e-4 0.003,-9.215e-4 5.8e-4,6.78e-5 9.7e-4,3.604e-4 0.002,4.282e-4 5.5e-4,1.06e-4 9.4e-4,-3.822e-4 0.002,-3.144e-4 0.007,-0.00261 0.0126,-0.00645 0.0202,-0.00822 0.003,-4.039e-4 0.005,7.74e-5 0.008,-5.346e-4 0.001,1.355e-4 3.4e-4,-0.00119 3.1e-4,-0.00194 0.005,0.00164 0.005,0.00253 0.0108,-4.052e-4 0.0303,-0.013864 -0.0225,0.00519 0.0154,-0.00686 0.0123,-0.00341 0.01,-0.00295 0.007,-0.0021 9.7e-4,3.605e-4 0.002,4.282e-4 0.002,2.71e-4 0.009,-0.00297 0.0185,-0.00731 0.028,-0.010177 0.0113,-0.00359 0.0218,-0.00442 0.033,-0.00646 0.002,-0.00121 0.004,-0.00369 0.007,-0.004 0.0244,-0.00523 0.008,0.00207 0.0275,-0.00276 0.003,-6.289e-4 0.006,-0.0029 0.008,-0.00359 0.003,-4.039e-4 0.005,7.74e-5 0.007,-8.47e-5 0.005,-4.671e-4 0.01,-0.00174 0.0148,-0.00235 0.0129,-0.00107 0.026,-0.00339 0.0387,-0.00291 0.002,-3.144e-4 0.003,6.314e-4 0.006,6.043e-4 0.002,4.6e-5 0.004,-5.227e-4 0.006,-0.00123 0.004,2.43e-5 0.009,-4.609e-4 0.0138,-2.981e-4 0.0329,-2.535e-4 0.0127,3.382e-4 0.0423,0.00185 0.004,-3.708e-4 0.008,-4.083e-4 0.0123,-7.117e-4 -0.002,-0.0017 8.5e-4,0.00207 0.002,0.00216 0.006,6.72e-4 0.0125,-0.00144 0.0183,-0.00122 0.004,1.322e-4 0.008,0.00204 0.0117,0.00306 0.006,1.305e-4 0.0104,-4.301e-4 0.0153,-6.047e-4 -1.5e-4,9.675e-4 0.0131,0.00294 0.0196,0.00399 0,0 3.7e-4,-4.499e-4 3.7e-4,-4.499e-4 0.005,-5.76e-5 0.009,0.00146 0.0147,0.00245 0.003,5.29e-4 0.007,0.00153 0.0102,0.00192 0.008,9.888e-4 0.0165,-2.026e-4 0.024,0.00233 0.004,0.0013 0.007,0.00477 0.0111,0.00608 0.009,0.00307 0.007,0.00204 0.006,-5.061e-4 -2.5e-4,-4.794e-4 0.002,8.624e-4 0.001,1.354e-4 0.006,0.00374 -0.005,-0.0016 0.003,-6.288e-4 0.0121,0.00202 -0.005,0.00304 0.012,0.00191 0.002,-1.681e-4 -0.001,2.358e-4 10e-4,1.355e-4 0,0 3.9e-4,2.927e-4 3.9e-4,2.927e-4 0.002,-2.18e-5 0.004,7.869e-4 0.005,3.262e-4 0.002,-5.394e-4 -0.003,-8.564e-4 -0.005,-0.0015 0,0 3.6e-4,-4.499e-4 3.6e-4,-4.499e-4 0.008,-2.736e-4 0.0152,-1.356e-4 0.0232,3.087e-4 1.4e-4,-1.709e-4 0.0215,0.00121 0.009,3.288e-4 -9e-5,-0.00223 0.002,-4.716e-4 0.004,2.054e-4 -4.1e-4,-6.64e-4 -0.001,-0.00162 -4.5e-4,-0.00178 5.6e-4,-3.036e-4 0.002,5.69e-5 0.002,2.71e-4 0.003,-1.79e-4 0.01,-0.0048 0.009,-0.00155 -7.1e-4,0.00401 -0.004,0.00318 -0.006,0.00238 0,0 -3.9e-4,-2.927e-4 -3.9e-4,-2.927e-4 -0.002,-6.422e-4 -0.003,0.00166 -0.004,9.197e-4 4.2e-4,6.482e-4 2.4e-4,0.00126 8.2e-4,0.00133 0.0429,-0.00788 0.004,-0.00507 0.0369,-0.00985 0.0186,1.977e-4 0.0213,-0.00275 0.0371,-0.00621 0.0263,0.00174 -0.004,8.443e-4 0.0171,-0.00208 0.003,-1.789e-4 0.005,0.00132 0.008,9.134e-4 0.005,-5.885e-4 0.0222,-0.00805 0.0271,-0.00379 0.01,-0.00557 -0.002,6.966e-4 0.0167,-0.00236 0.003,-6.289e-4 0.007,-0.00338 0.0103,-0.00359 0.009,-0.00118 0.0174,0.00176 0.0269,2.664e-4 0.005,-2.422e-4 0.009,-0.00298 0.0133,-0.00423 0.003,7.539e-4 0.006,0.00265 0.009,0.0028 0.004,4.102e-4 0.009,-8.501e-4 0.0134,-0.0013 0.0182,-9.872e-4 0.0352,8.852e-4 0.0525,0.00375 0.0132,-0.00567 0.0235,0.00252 0.0359,0.00205 0.002,2.709e-4 0.004,-0.002 0.006,-0.00168 0.002,2.71e-4 0.003,0.00276 0.005,0.00327 0.004,9.242e-4 0.007,8.436e-4 0.0116,0.00161 0.0246,0.00234 -0.01,-0.00103 0.0171,-6.332e-4 0.002,4.6e-5 0.005,0.00155 0.007,0.00175 0.004,7.522e-4 0.009,7.172e-4 0.0139,0.00115 0.004,7.91e-5 0.0122,-0.00318 0.01,-5.485e-4 -0.002,0.00297 -0.007,0.00112 -0.0104,0.00143 -0.004,5.611e-4 0.006,5.956e-4 0.0101,4.722e-4 0.0118,-8.469e-4 0.006,-0.00362 0.0116,1.656e-4 0.0113,-6.93e-4 0.0236,-0.00317 0.0347,-2.565e-4 0.006,-0.00112 0.0119,1.837e-4 0.018,6.576e-4 0,0 7.6e-4,-1.572e-4 7.6e-4,-1.572e-4 -0.006,0.00143 -0.008,0.00289 0.0189,-0.00284 0.003,-1.789e-4 -0.004,0.00106 -0.006,0.00195 0.0119,-0.00249 0.0235,-0.00414 0.0357,-0.00446 0.0181,-0.00276 0.0365,-0.00436 0.0546,-0.0073 0.0234,-0.00165 -0.005,3.15e-5 0.0254,5.729e-4 0.004,-1.459e-4 0.008,-8.891e-4 0.0112,-8.551e-4 0.004,1.908e-4 0.008,0.00289 0.0121,0.00261 0.0397,-7.308e-4 -0.0282,-0.00764 0.0242,-9.96e-4 0.004,8.601e-4 0.007,0.00171 0.0109,0.00176 0.005,3.105e-4 0.0102,-0.00168 0.0157,-0.00105 0.008,5.524e-4 0.0156,0.00325 0.0237,0.00497 0.008,0.00136 0.0134,0.00298 0.008,0.00136 0.009,0.00424 0.0309,0.00192 0.0383,0.00595 0.002,0.00143 -0.005,-3.023e-4 -0.007,-3.427e-4 l 3e-5,7.426e-4 c 0.005,9.664e-4 0.009,0.00171 0.0146,0.00245 0.003,3.04e-4 0.007,-4.392e-4 0.0105,2.22e-5 0.01,0.00177 0.0191,0.00733 0.0291,0.00823 0.001,1.354e-4 -0.001,-0.00185 -0.002,-0.00261 0.002,0.0021 0.002,0.00221 0.008,0.00261 0.002,4.6e-5 0.006,-8.899e-4 0.008,-5.346e-4 0.004,0.00103 0.007,0.00324 0.0103,0.00477 0.007,0.00284 0.0109,0.00343 0.0181,0.00502 0.009,0.003 -0.007,-0.0015 -0.006,-0.00265 -2.4e-4,-0.00126 0.001,-0.00143 0.002,-0.00121 0.003,9.789e-4 0.005,0.00232 0.008,0.00351 0.007,-2.841e-4 0.0134,-0.00175 0.0197,-0.00297 0.002,4.6e-5 0.005,0.00108 0.007,3.427e-4 0.003,-4.039e-4 0.005,-0.00256 0.007,-0.00298 7.6e-4,-1.572e-4 -9.8e-4,0.00108 -0.001,0.0018 0.009,-0.00466 0.0186,-0.00361 0.0278,-0.00466 0.005,-6.921e-4 0.0109,-0.00189 0.0163,-0.00265 0.0132,-0.00132 0.01,0.00342 0.0126,-0.00116 0.0135,-0.00165 0.0285,-0.00551 0.042,-0.00541 0.021,0.00111 0.0425,-0.0035 0.0634,-0.00145 0.001,1.355e-4 0.001,0.0014 0.002,0.00171 0.001,1.355e-4 0.003,-4.039e-4 0.004,-5.373e-4 0.004,-1.459e-4 0.008,6.489e-4 0.0112,5.93e-4 0.013,0.0089 0.0106,0.00425 0.008,0.00166 0.008,5.803e-4 0.0152,-0.0024 0.0221,9.08e-4 0.0187,-2.647e-4 0.037,0.00162 0.0551,0.00431 0.0149,0.00313 0.0298,0.00503 0.0444,0.00907 0.01,0.0027 0.0114,0.00234 0.005,0.00297 5.1e-4,-6.968e-4 0.001,-0.00193 0.002,-0.00263 2.4e-4,-1.752e-4 -6.2e-4,9.861e-4 -3.4e-4,0.00119 7.1e-4,6.866e-4 0.002,0.0011 0.003,0.00126 0.004,5.967e-4 0.007,0.00142 0.0102,0.00192 0.003,-4.039e-4 0.006,-0.00231 0.009,-0.00257 0.001,1.355e-4 0.001,0.00162 0.002,0.00216 0.01,-0.00339 0.0153,-0.00337 0.0271,-0.00308 0.002,-0.00403 8.4e-4,-0.00298 0.004,-0.00117 7.3e-4,-8.998e-4 0.005,-0.00185 0.004,-0.00146 0.005,-0.00126 0.01,-0.00281 0.0144,-0.00407 0.016,-0.00263 0.0319,-0.00387 0.0479,-0.00736 6.6e-4,-5.915e-4 0.001,-0.00143 0.003,-0.00166 0.007,-7.747e-4 0.0136,-6.009e-4 0.0201,-0.00125 0.005,-5.866e-4 0.01,-0.00103 0.0138,-0.00175 9e-4,-7.725e-4 0.002,-0.0019 0.003,-0.00205 0.002,-5.394e-4 0.003,4.065e-4 0.006,6.043e-4 0.006,-0.00151 0.0131,-0.00227 0.02,-0.00342 0.0194,-0.0023 0.0381,-0.00138 0.0574,-0.00385 0.003,-1.79e-4 0.006,5.728e-4 0.009,6.069e-4 0.005,1.34e-5 0.0103,-0.00179 0.0152,-0.00205 0.007,-2.907e-4 0.0266,0.00393 0.0322,0.00283 0.001,-8.95e-5 -8.5e-4,-0.00207 -10e-4,-0.00306 0.0246,-4.502e-4 0.0487,0.00177 0.0723,0.00585 0.005,0.00478 0.0113,0.00237 0.0162,0.00359 0.002,7.209e-4 0.003,0.002 0.005,0.00225 3.7e-4,-4.499e-4 -10e-4,-0.00185 -4.8e-4,-0.00252 5.4e-4,-6.749e-4 0.001,2.818e-4 0.002,2.71e-4 0.005,9.132e-4 0.01,0.00193 0.0147,0.00317 0.008,9.427e-4 0.0154,0.00365 0.023,0.0051 0.004,-2.977e-4 0.008,-0.00109 0.0123,-0.00145 3.5e-4,-4.04e-5 7.7e-4,2.14e-4 0.001,1.354e-4 0.0142,-1.764e-4 0.0276,0.00244 0.0422,-3.368e-4 0.0103,0.00205 -9.5e-4,1.08e-5 0.004,-9.197e-4 0.003,-7.075e-4 8.3e-4,0.0035 0.003,-1.789e-4 0.007,0.00102 0.0188,0.00518 0.0261,-0.00175 0,0 3.9e-4,2.927e-4 3.9e-4,2.927e-4 0.004,-7.129e-4 0.008,-0.00143 0.0115,-0.00203 0.0178,0.00158 0.0355,0.00199 0.0532,0.00361 0.0165,-0.00835 0.0328,-0.01759 0.0498,-0.023499 0.10622,-0.036733 0.12145,-0.03593 0.18326,-0.048227 0.001,-0.00106 1.4e-4,-0.00134 0.003,-0.00205 0.01,-0.00172 0.0404,-0.00705 0.0304,-0.00485 -0.0169,0.00384 -0.0205,0.0047 -0.0322,0.00703 -0.002,0.00211 -0.006,0.0048 -0.005,0.00396 0.0829,-0.033445 0.17267,-0.021831 0.2574,-0.052988 0.12492,-0.037776 -0.0416,0.0062 0.0511,-0.00145 0.008,-5.74e-4 0.0157,-0.00952 0.0238,-0.011875 0.0277,-0.00728 0.0552,-0.012453 0.083,-0.016471 0.0501,-0.00725 0.0999,-0.006 0.14977,-0.0091 0.10195,0.014622 0.2098,-0.00107 0.31038,0.017946 0.20358,0.038468 -0.13517,-0.00664 0.13705,0.02645 0.0174,0.00366 0.0699,0.014759 0.0524,0.010729 -0.0342,-0.00802 -0.068,-0.015568 -0.10254,-0.022633 0.0628,0.00903 0.10846,0.012325 0.17706,0.036442 0.0171,0.00376 0.036,0.023786 0.0517,0.011606 0.006,-0.00432 -0.006,-0.00895 -0.0174,-0.012864 0.0231,0.00637 0.0471,0.012789 0.0662,0.021019 0.007,-0.00556 0.0119,-0.017423 0.0202,-0.017369 0.021,1.03e-4 0.0371,0.015303 0.0575,0.018057 0.0153,0.00207 0.0327,-0.00574 0.048,-0.00374 0.0128,0.00175 0.023,0.0096 0.0346,0.014418 0.012,4.2e-5 0.024,-1.173e-4 0.0358,-1.132e-4 -4.3e-4,7.539e-4 -8.7e-4,0.00187 -0.001,0.00283 0.066,-0.029085 0.0895,0.018265 0.12286,0.017324 0.006,1.37e-5 0.0113,-0.00379 0.0173,-0.00543 0.0207,0.00164 0.0415,0.003 0.0622,0.00466 2.5e-4,8.34e-5 5.5e-4,4.931e-4 7.9e-4,5.854e-4 l -7.6e-4,1.572e-4 c -0.005,-0.00119 -0.0202,0.00386 -0.0155,0.00395 0.009,5.516e-4 0.018,5.677e-4 0.0269,0.00101 -0.006,-0.00229 -0.007,-0.00413 -0.0103,-0.00477 0.004,0.00189 0.008,0.00221 0.0121,0.00406 0.0507,0.00244 0.10281,0.00381 0.15334,0.00479 0.007,0.00196 0.0149,0.00395 0.0223,0.00598 0.0162,-0.00177 0.0362,-0.0047 0.0224,-9.675e-4 0.004,-0.00106 0.009,-0.00269 0.0133,-0.00349 0.05,-0.00894 0.0994,-0.00877 0.1492,-0.013739 0.0294,0.026595 0.0869,-0.018137 0.12154,-0.014588 0.005,4.634e-4 0.005,0.010106 0.0108,0.010204 0.007,1.952e-4 0.0144,-0.00839 0.0213,-0.00952 0.0271,-0.00361 0.0539,-0.0025 0.0809,-0.00397 0.10363,-0.0019 0.21926,-0.00977 0.32569,-2.178e-4 0.0617,0.00879 0.14447,0.00596 0.24285,0.010737 0.018,0.00357 0.035,0.013706 0.0542,0.010709 0.0132,-0.00204 0.016,-0.00341 0.014,-0.00511 -0.004,-0.00116 -0.0171,-0.00362 -0.0174,-0.00445 -0.0202,-0.00282 -0.05,-0.00377 -0.0487,-0.00379 0.14605,0.00166 0.0492,-0.0027 0.0487,0.00379 0.008,0.00111 0.0156,0.00255 0.0177,0.004 0.007,0.00196 0.008,0.00411 0.0317,0.00734 0.0427,0.00609 0.0869,0.00624 0.13037,0.00955 0.008,0.00211 0.009,0.00266 0.0166,0.00459 0.01,-0.00183 0.02,-0.00374 0.03,-0.00514 1.2e-4,6.8e-6 0.0419,-0.00566 0.024,0.00162 -0.002,0.00136 -0.0191,-0.013984 0.008,-0.00314 0.0226,7e-5 0.0456,-0.00154 0.068,-1.915e-4 0.005,4.341e-4 0.009,0.00185 0.0132,0.00203 0.0371,7.819e-4 0.006,-0.00343 0.0306,9.666e-4 5e-4,1.622e-4 0.001,1.354e-4 0.002,2.709e-4 0.002,-3.93e-4 0.004,-0.00135 0.007,-0.0021 0.007,-0.00291 0.0134,-0.00638 0.0205,-0.00939 0.0569,-0.018962 0.0437,-0.011943 0.0799,-0.019482 0.005,-0.0019 0.0107,-0.00316 0.0154,-0.00612 0.003,-0.00246 -0.008,0.00254 -0.0118,0.00318 -9.7e-4,-3.627e-4 -0.002,-7.209e-4 -0.002,-7.209e-4 0.0182,0.00115 -0.008,0.00212 0.0114,-0.00347 0.008,-0.00245 0.0167,-0.00361 0.0252,-0.00522 0.003,-4.039e-4 0.006,-6.986e-4 0.009,-0.00112 0.003,-0.00336 0.0163,-0.015089 0.007,-0.00111 -0.003,6.289e-4 -0.005,7.856e-4 -0.007,0.00111 -3.7e-4,4.47e-4 -0.003,0.00226 -0.002,0.00225 0.007,-0.00149 0.0148,-0.00439 0.0222,-0.00605 0.005,-0.00111 0.009,1.128e-4 0.0141,-0.00147 0.003,-0.001 0.006,-0.00448 0.009,-0.00663 0.002,7.209e-4 0.004,0.00395 0.007,0.00367 0.008,-3.657e-4 0.0169,-0.00378 0.0252,-0.00522 0.0146,-0.00234 0.0296,-0.00147 0.0437,-6.435e-4 0.0178,8.973e-4 0.0132,0.00799 0.0179,-7.904e-4 0.001,0.00147 5e-4,0.00289 0.003,0.00348 0.006,8.969e-4 0.0134,-3.085e-4 0.0194,-3.691e-4 0.0229,6.833e-4 -2.2e-4,5.582e-4 0.0292,0.00272 0.0163,0.00655 0.0665,0.00398 0.0769,0.016974 0.0164,0.00349 0.0228,0.00557 0.0306,0.00793 9.4e-4,-0.00146 0.003,-0.00216 0.004,-0.00263 0.003,-2.575e-4 0.005,0.00128 0.007,3.427e-4 0.005,-0.00141 0.009,-0.00437 0.0128,-0.00668 0.0195,-0.01095 0.007,-0.00514 0.0406,-0.011345 0.0119,-0.00232 0.0227,-0.011024 0.0345,-0.013746 0.004,-0.00108 0.009,7.441e-4 0.0131,-1.409e-4 9.5e-4,-1.09e-5 -0.002,-0.00136 -0.002,-0.00245 -2.4e-4,-0.00126 10e-4,7.341e-4 0.002,2.71e-4 0.007,-0.00197 0.0144,-0.00391 0.021,-0.00618 0.0448,-0.00497 -0.0287,0.00401 0.0426,-0.00991 0.003,-6.288e-4 0.008,-1.801e-4 0.0112,-1.271e-4 -2.3e-4,5.494e-4 -7.9e-4,0.00121 -3.3e-4,0.00119 5.4e-4,1.128e-4 6.9e-4,-0.00164 0.002,-0.00225 l 3.9e-4,2.927e-4 c 2.2e-4,1.134e-4 5.4e-4,1.172e-4 0.001,1.355e-4 l 7.6e-4,-1.572e-4 c 9.6e-4,-1.09e-5 0.002,2.032e-4 0.004,-8.74e-5 9.5e-4,-1.08e-5 -2.7e-4,-4.479e-4 -0.003,-5.637e-4 0.0119,-0.00956 6.9e-4,-0.00164 0.0289,-0.00526 0.01,-0.00132 0.0212,-0.00519 0.0311,-0.00573 0.0128,-7.622e-4 0.0253,-3.914e-4 0.0381,-5.829e-4 0.0406,-0.00138 0.08,0.00377 0.11646,0.016091 0.0113,0.00694 0.0269,0.00616 0.0389,0.011317 0.005,0.00192 0.008,0.0058 0.0123,0.00768 0.008,0.00377 0.0189,0.00522 0.0276,0.00782 0.002,0.00162 0.003,0.00298 0.005,0.00445 0.006,0.00228 0.0126,0.00472 0.0186,0.00747 0.009,0.00776 0.0195,0.011933 0.0298,0.015763 0.002,3.496e-4 0.003,3.68e-4 0.005,7.761e-4 0.002,4.959e-4 0.003,0.00186 0.006,0.00282 0.003,-3.26e-5 0.005,2.823e-4 0.008,5.007e-4 0.003,-6.289e-4 0.01,0.00135 0.01,-0.00172 3e-5,-0.00394 -0.0153,-0.00151 -0.0113,-0.00204 0.0101,-0.0015 0.0219,0.00142 0.031,-9.314e-4 0.005,-0.00262 0.006,0.00124 0.0101,0.00119 0.006,-5.14e-4 0.0134,-0.00253 0.0197,-0.00297 0.0123,-6.374e-4 0.0243,5.928e-4 0.0366,4.591e-4 0.004,-0.014087 0.0116,8.114e-4 0.0176,0.00184 -0.002,7.643e-4 0.006,0.00265 -3.4e-4,0.00119 2.3e-4,-1.898e-4 7.6e-4,-1.572e-4 0.001,-6.071e-4 6.3e-4,-6.12e-4 7.9e-4,-0.00122 0.002,-0.00151 0.006,-6.253e-4 0.0129,-4.954e-4 0.0187,-2.196e-4 0.002,3.496e-4 0.003,4.704e-4 0.006,8.969e-4 9.4e-4,-3.821e-4 0.002,-2.466e-4 0.004,-5.372e-4 0.004,-2.538e-4 0.008,4.443e-4 0.012,4.583e-4 0.008,-9.081e-4 0.0154,-0.0034 0.0234,-0.00301 0.005,1.066e-4 0.009,0.00246 0.0147,0.00317 0.008,8.156e-4 0.0157,7.726e-4 0.0236,0.00133 0.0166,0.0013 0.0133,0.00627 0.016,-0.00148 0.002,0.00109 0.002,0.00226 0.003,0.00228 0.005,0.00116 0.0111,9.733e-4 0.0165,0.00169 0.004,4.742e-4 0.0144,0.00409 0.0113,0.00204 -0.002,-0.00158 -0.0413,-0.00741 -0.006,-2.219e-4 0.0127,-0.00459 0.0235,0.00234 0.0349,0.00482 -7.5e-4,1.572e-4 -0.002,2.467e-4 -0.002,4.717e-4 0.002,3.495e-4 0.004,0.00129 0.007,0.00109 7.6e-4,-1.572e-4 -6.2e-4,-8.013e-4 -8.2e-4,-0.00133 -5.8e-4,-6.77e-5 -0.002,-4.281e-4 -0.002,-2.709e-4 5.6e-4,-3.036e-4 0.003,-7.752e-4 0.006,-0.00123 7.6e-4,-1.572e-4 8.8e-4,-7.885e-4 0.002,-7.643e-4 0.002,-2.17e-5 0.003,0.001 0.005,0.00105 0.003,-2.576e-4 0.006,-8.921e-4 0.009,-0.00112 9.8e-4,3.605e-4 0.003,6.076e-4 0.004,6.553e-4 l 7.6e-4,-1.572e-4 c 0.0163,-1.554e-4 0.0343,0.00284 0.0508,0.00116 0.002,7.209e-4 0.003,0.00144 0.005,0.0015 0.006,5.335e-4 0.0125,-6.768e-4 0.0183,-5.124e-4 -0.0158,-0.00322 -0.0402,-0.00642 0.0255,0.00276 0.005,9.9e-6 0.0111,2.375e-4 0.0168,5.368e-4 0.0133,0.012746 -0.0155,-0.00276 -0.0117,-0.00306 0.005,-1.758e-4 0.009,0.00179 0.0147,0.00245 0.003,4.119e-4 0.0151,-5.429e-4 0.0112,-1.125e-4 -0.004,9.222e-4 -0.01,4.922e-4 -0.0142,7.256e-4 -7.6e-4,1.572e-4 -0.002,5.394e-4 -0.002,7.643e-4 -0.0209,-0.0023 0.0187,-9.701e-4 0.0202,2.018e-4 0.007,-0.00259 0.0154,-0.00318 0.0233,-0.00446 4.2e-4,-7.685e-4 3.2e-4,-0.00156 6.7e-4,-0.00238 0.002,3.496e-4 0.004,1.961e-4 0.006,6.042e-4 0.004,-6.25e-4 0.008,-0.00159 0.0122,-0.00216 0.001,1.354e-4 0.002,3.495e-4 0.003,1.137e-4 l 7.5e-4,-1.572e-4 c 0.004,-0.00178 0.004,-0.00196 0.008,-0.00314 -0.007,0.00475 0.0159,-0.00589 0.0132,-0.00713 -0.001,-6.912e-4 -0.003,0.00188 -0.005,0.00396 l -7.6e-4,1.572e-4 c -6.8e-4,9.349e-4 -0.003,0.00254 -0.002,0.00225 0.003,-10e-4 0.006,-0.00291 0.0103,-0.00432 0.008,-0.00529 0.0175,-0.00531 0.0258,-0.00829 0.001,1.354e-4 -0.002,-0.00101 -0.002,-0.00171 9.1e-4,-0.00112 0.002,-0.00144 0.004,-0.00162 0.007,-0.00316 0.0148,-0.00598 0.022,-0.00895 0.006,-0.00128 0.011,-0.00272 0.0163,-0.00483 3.7e-4,-4.47e-4 -9e-4,-8.375e-4 -8.2e-4,-0.00133 8.7e-4,-7.944e-4 8.6e-4,-0.00224 0.003,-0.00279 0.0185,-0.00786 0.0371,-0.012692 0.056,-0.01892 0.0201,-0.00388 0.0395,-0.010868 0.0599,-0.013887 0.0266,-0.00398 0.007,0.00343 0.0285,-0.00628 0.0391,-0.00836 0.0758,-0.00467 0.11405,-0.00608 0.007,-2.728e-4 0.0134,-0.00174 0.0201,-0.00125 0.01,5.103e-4 0.019,0.00274 0.0285,0.0036 0.002,-2.467e-4 0.002,-0.00136 0.004,-0.00117 0.008,5.6e-6 0.0161,0.00105 0.024,0.00162 0.0374,0.00417 -0.006,-0.00228 0.031,5.167e-4 0.004,8.83e-5 0.007,0.00164 0.0109,0.00249 0.007,8.343e-4 0.0135,0.00115 0.0202,0.00166 0.0179,-0.00285 0.0157,0.00241 0.0331,0.00485 0.0429,0.00602 -0.0319,-0.014096 0.0304,0.00429 0.0154,-0.0033 0.0272,0.00433 0.04,0.00928 0.004,0.00154 0.008,0.00414 0.0125,0.00435 0.006,-4.398e-4 0.008,-8.138e-4 0.009,-0.00141 -10e-4,-0.00105 -0.006,-9.116e-4 -0.0116,-0.00161 -0.002,-7.208e-4 -0.009,-0.00186 0.006,2.219e-4 0.002,3.496e-4 0.004,0.00103 0.006,0.00135 0,0 7.5e-4,-1.572e-4 7.5e-4,-1.572e-4 l 7.6e-4,-1.572e-4 c 9.7e-4,3.627e-4 0.002,0.00115 0.003,0.00126 0.0503,0.00287 0.006,-3.13e-5 0.0293,0.00488 0.002,-3.93e-4 0.003,-0.00108 0.004,-9.197e-4 7.6e-4,-1.572e-4 0.002,5.69e-5 0.002,4.282e-4 -9.4e-4,3.822e-4 6.9e-4,-9.291e-4 7.3e-4,-8.998e-4 l 7.6e-4,-1.572e-4 c 10e-4,-2.358e-4 -0.0113,0.00247 0.003,-0.00108 9.7e-4,3.626e-4 0.001,6.417e-4 0.003,8.124e-4 l 3.9e-4,2.927e-4 c 0.004,7.36e-5 0.008,5.05e-5 0.0127,-4.19e-4 0.002,-2.467e-4 0.005,4.2e-6 0.008,-5.346e-4 0.006,-0.00141 0.0154,-0.00307 0.0118,-0.00318 0.0116,-6.444e-4 0.0221,-0.0079 0.0332,-0.011254 0.0115,-0.00328 0.0238,-0.00485 0.0351,-0.00839 0.0177,-1.121e-4 0.0239,-0.00575 0.0426,-0.00919 0.015,-0.00234 0.0204,-5.069e-4 0.0118,-0.00318 0.01,0.00562 0.0274,-0.00536 0.0378,-0.00783 0.004,-6.251e-4 0.007,3.291e-4 0.0112,-1.271e-4 0.006,-7.221e-4 0.0117,-0.00361 0.0177,-0.00513 0.0198,0.00655 0.0452,-0.00606 0.0632,-0.00797 0.002,-2.466e-4 0.003,-8.538e-4 0.005,-0.00108 0.006,-5.883e-4 0.0119,-0.00148 0.0182,-0.00196 0.035,-0.00319 0.0686,6.632e-4 0.1034,-0.00132 0.0111,-0.011404 0.0115,0.0044 0.0174,0.00445 0.002,3.496e-4 0.004,-0.0014 0.006,-0.00123 9.5e-4,-1.09e-5 0.0265,0.0069 0.029,0.00533 0.0115,-0.00922 -8.2e-4,-0.00133 0.0198,0.00137 0.004,7.87e-4 0.008,-0.00286 0.0122,-0.00216 0.0205,0.00236 0.0427,0.00933 0.0619,0.01569 0.006,0.00804 0.0199,-0.00159 0.0306,0.00938 0.0113,6.887e-4 0.0213,0.00436 0.0321,0.00762 0.006,0.00158 0.002,0.00173 0.004,0.00213 10e-4,1.354e-4 8.4e-4,-8.164e-4 0.002,-4.717e-4 l 7.6e-4,-1.572e-4 c 0.005,0.00118 0.006,0.00265 0.0105,0.00147 9.5e-4,-1.09e-5 0.004,3.424e-4 0.005,3.35e-5 0.005,0.00153 0.0106,0.00382 0.0162,0.00431 0.004,8.83e-5 0.009,-0.00168 0.0134,-0.0013 0.004,7.36e-5 0.007,0.00231 0.0113,0.00278 0.004,8.82e-5 0.008,-0.00115 0.0112,-8.551e-4 0.006,7.417e-4 0.0109,0.00281 0.0166,0.0046 0.005,8.346e-4 0.009,0.00245 0.0139,0.0026 0.006,4.221e-4 0.0134,-0.00171 0.0194,-3.544e-4 0.005,0.00118 0.008,0.00553 0.0123,0.00768 0.006,2.736e-4 0.0127,-1.366e-4 0.0191,8.01e-4 0.03,0.00393 0.0143,0.00357 0.0102,0.00337 0.003,-0.00214 0.006,4.692e-4 0.007,0.00147 0.002,1.246e-4 -6.6e-4,-3.558e-4 0.003,1.137e-4 0.003,-10e-4 0.006,-0.00209 0.01,-0.0017 0.006,5.706e-4 0.0117,0.00406 0.0181,0.00502 0.004,8.016e-4 0.01,-0.00126 0.0142,-7.256e-4 0.009,0.00106 0.0306,0.00559 0.0403,0.00883 0.001,1.354e-4 0.002,-3.931e-4 0.003,1.137e-4 -7.8e-4,-2.163e-4 6e-5,-0.0032 0.001,-0.00283 0.001,1.355e-4 0.002,0.0017 0.003,0.00273 0.006,7.046e-4 0.019,0.00185 0.0209,-6.609e-4 0.0198,0.00127 0.0385,0.00621 0.0579,0.00922 9.9e-4,-0.00106 0.002,-0.00268 0.004,-0.00337 0.001,1.355e-4 8.2e-4,0.00133 0.002,0.00146 0.0118,6.608e-4 0.0253,-0.00256 0.0373,-0.00187 0.0115,6.494e-4 0.0227,0.00244 0.0341,0.00354 0.006,0.00155 0.0128,0.00276 0.0192,0.0037 5.6e-4,9.92e-5 -6.2e-4,-0.00118 -8.2e-4,-0.00133 0.006,3.479e-4 0.0123,-0.00128 0.0178,-0.00224 0.002,7.209e-4 0.004,4.888e-4 0.006,8.97e-4 -8.5e-4,8.076e-4 -0.003,0.00348 -0.002,0.00263 0.003,-0.00249 0.005,-0.00122 0.005,-0.0018 -2.5e-4,-0.00126 -0.005,-0.00153 0.0122,-0.00363 0.004,8.162e-4 0.007,0.00109 0.0105,0.00221 0.002,-7.643e-4 0.003,-0.00233 0.006,-0.00195 0.002,-2.17e-5 0.004,0.00169 0.007,0.00175 9.8e-4,3.604e-4 0.0112,-0.0021 0.0126,-0.00261 0.0138,-0.0079 0.0233,-0.00161 0.0354,-0.00185 3.6e-4,-4.529e-4 -7e-4,-0.00304 2.4e-4,-0.00342 0.002,-7.644e-4 0.003,8.91e-4 0.006,6.042e-4 0.006,-4.915e-4 0.013,-0.00213 0.0189,-0.00354 0.009,-0.00405 0.0166,-2.847e-4 0.0249,-0.00187 0.003,-0.001 0.006,-0.0039 0.0103,-0.00432 0.007,-7.779e-4 0.0139,0.00136 0.0206,4.945e-4 0.006,-4.397e-4 0.0117,-0.00208 0.0167,-0.00381 0.01,-5.743e-4 0.0195,-0.00167 0.0294,-0.00207 0.006,0.00124 0.0126,0.00227 0.0188,0.00342 4.2e-4,-7.685e-4 -9e-5,-0.00223 6.7e-4,-0.00238 0.002,-2.18e-5 0.003,0.00147 0.005,0.0015 0.002,-6.179e-4 0.004,-0.0017 0.006,-0.00238 0.008,-0.00245 0.008,-0.00217 0.0153,-0.00135 0.0257,-0.00224 0.0501,-0.00568 0.0756,-0.00507 0.0254,5.954e-4 0.0129,0.00344 0.025,2.949e-4 0.0142,0.0073 -0.002,9.892e-4 0.0205,-2.336e-4 0.004,8.163e-4 0.007,0.00154 0.0109,0.00249 -1.9e-4,5.787e-4 -0.001,0.00185 -0.001,0.00209 0.006,0.00158 0.0151,-9.445e-4 0.0208,-0.00212 0.0356,-0.00185 0.0706,-0.00107 0.10572,3.944e-4 0.006,-2.316e-4 0.0119,-5.37e-5 0.0175,-0.00108 0.01,-4.999e-4 0.0256,-0.00152 0.0164,-0.0012 0.001,1.355e-4 0.002,2.032e-4 0.002,-2.17e-5 0.005,-0.00158 0.01,-0.00382 0.0151,-0.00424 0.004,-6.251e-4 0.008,0.00147 0.012,0.00116 0.003,-2.576e-4 0.005,-0.00125 0.008,-0.00169 0.009,-0.00136 0.0175,-0.00144 0.0264,-0.00218 0.004,1.029e-4 0.008,4.961e-4 0.0131,5.792e-4 0.021,-2.311e-4 0.021,-5.878e-4 0.0261,-0.00101 -0.002,2.17e-5 -0.004,-1.029e-4 -0.003,-8.124e-4 0.008,-0.00574 0.0164,-0.00253 0.0238,-0.00272 0.0159,-3.738e-4 0.0312,-0.00165 0.0472,-0.00576 0.003,-2.575e-4 0.005,-5.481e-4 0.007,-3.628e-4 0.0276,0.00233 -0.0269,1.871e-4 0.029,-0.00381 0.004,-6.397e-4 0.009,0.00298 0.0132,0.00348 0.005,4.633e-4 0.0119,1.623e-4 0.0175,3.874e-4 0.0235,-5.9e-5 0.0456,0.00301 0.0692,0.00357 l 3e-5,7.426e-4 c 5.8e-4,6.77e-5 0.002,-5.394e-4 0.002,-7.643e-4 l 4e-4,2.927e-4 c 0.004,-6.105e-4 0.009,-0.00116 0.0127,-0.00116 0.0195,3.207e-4 0.004,0.00407 0.0168,5.368e-4 0.0104,0.00129 0.0218,0.00249 0.0326,0.0024 0.0185,-3.885e-4 0.008,-0.00371 0.0176,3.649e-4 0.002,-2.17e-5 0.004,7.36e-5 0.006,-5.061e-4 0.025,-0.00513 0.0107,0.00154 0.0319,0.00254 0.004,4.45e-4 0.0143,0.00103 0.0129,-0.00306 -9.2e-4,-0.00428 -0.009,-3.356e-4 -0.0138,-4.074e-4 -0.001,-1.354e-4 -0.002,6.18e-4 -0.003,-1.137e-4 -4.2e-4,-0.00104 0.0137,-0.00409 0.0144,-0.00407 0.003,4.119e-4 0.006,0.00371 0.008,0.00306 5.8e-4,7e-5 8.1e-4,-8.427e-4 0.002,-7.643e-4 0.006,-0.00502 0.0112,-0.010313 0.0177,-0.014288 0.006,-0.00388 0.0125,-0.00476 0.018,-0.00848 0.0108,-0.00686 0.01,-0.013903 0.0102,-0.00722 9.6e-4,-1.08e-5 0.004,-0.00131 0.003,-6.288e-4 -0.0378,0.024925 0.0209,-0.014436 0.0262,-0.017855 0.0114,-0.00371 -0.002,3.93e-4 0.0215,-0.013587 0.004,-0.00184 0.007,-0.00385 0.011,-0.0052 1.9e-4,-2.191e-4 4.4e-4,-3.899e-4 7.2e-4,-8.998e-4 -1.6e-4,5.962e-4 1e-4,0.00223 4.6e-4,0.00178 1.8e-4,-2.265e-4 5.9e-4,-0.001 7e-4,-0.00164 -0.003,6.289e-4 0.0192,-0.012796 0.0218,-0.014757 l -3e-5,-7.426e-4 c -7.6e-4,1.572e-4 -0.002,-2.032e-4 -0.002,2.17e-5 -5.7e-4,-7.22e-5 0.002,-0.00114 0.002,-0.00151 l -3e-5,-7.426e-4 c 2.1e-4,1.194e-4 6.9e-4,7.068e-4 0.001,8.781e-4 -0.004,-0.00226 0.0169,-0.013469 0.0253,-0.019876 -0.0309,0.025916 0.0268,-0.019632 0.0209,-0.018224 -0.002,7.643e-4 -0.007,0.00701 -0.005,0.00571 0.0105,-0.00617 0.02,-0.013132 0.0302,-0.019791 0.0157,-0.013254 0.017,-0.010676 0.0328,-0.019968 9.1e-4,-0.00112 -0.003,5.502e-4 -0.004,7.86e-4 0.008,0.00169 -0.0147,0.00834 -0.008,0.00386 0.007,-0.00514 0.0141,-0.00885 0.0211,-0.01316 0.003,-0.00214 0.006,-0.00361 0.009,-0.00546 9.2e-4,-7.564e-4 0.003,-0.00147 0.004,-0.00234 0.002,-6.179e-4 -0.002,2.467e-4 -0.004,0.00117 0.006,-0.00979 0.0213,-0.020138 0.031,-0.027637 0.004,-0.00379 0.0198,-0.019222 0.022,-0.02027 0.0112,-0.015804 0.0295,-0.024151 0.0433,-0.036765 0.002,-0.00211 0.007,-0.014315 0.0103,-0.012732 0.004,8.016e-4 0.003,-0.00418 0.004,-0.00454 7.3e-4,-8.983e-4 0.002,3.496e-4 0.003,-6.288e-4 7.3e-4,-8.984e-4 -1e-4,-0.0026 -1.5e-4,-0.00371 0.0115,-0.0045 -0.003,0.00276 0.002,-0.0038 0.002,-0.00211 0.005,-0.0018 0.007,-0.00355 0.007,-0.00674 -0.001,-1.355e-4 0.006,-0.00484 0.005,-0.00205 0.007,-0.012104 0.007,-0.012891 10e-4,-0.00142 0.004,-5.8e-5 0.005,-0.00137 0.0111,-0.010594 -0.009,-0.00119 0.007,-0.00731 0.004,-0.010625 0.0153,-0.01776 0.019,-0.028074 0.002,-0.00597 0.0102,-0.00782 0.0137,-0.012347 0.001,-0.00172 9.3e-4,-0.00428 0.002,-0.0063 0.006,-0.012386 0.019,-0.02038 0.0286,-0.0308 0.0141,3.152e-4 0.0178,-0.021629 0.0272,-0.027593 0.002,-2.467e-4 0.003,7.832e-4 0.003,1.138e-4 0.007,-0.0063 -10e-4,-0.00407 0.004,-0.00556 8.4e-4,-0.00117 0.001,-0.00209 0.002,-0.00263 9.5e-4,-1.08e-5 0.003,8.911e-4 0.003,5.637e-4 0.003,-0.00179 0.006,-0.00874 0.008,-0.011563 0.002,-0.00444 0.008,-0.00464 0.0105,-0.00909 9.2e-4,-0.00112 8.4e-4,-0.00377 8.7e-4,-0.00497 0.009,-0.011031 0.003,0.0056 0.007,-0.00981 0.0266,-0.018177 -0.0131,0.010141 0.009,-0.00922 0.002,-0.00114 0.006,-5.882e-4 0.007,-0.00255 0.002,-0.00211 7.6e-4,-0.00559 0.002,-0.00772 0.002,-0.00211 0.008,-0.00733 0.0102,-0.00864 0.009,-0.011529 0.0193,-0.022652 0.0289,-0.034125 0.009,-0.011319 0.0179,-0.022335 0.0266,-0.033685 0.0103,-0.01118 0.016,-0.022507 0.0286,-0.032221 0.005,-0.014069 0.0164,-0.026153 0.028,-0.036173 0.01,-0.01469 0.0226,-0.026335 0.0323,-0.041446 0.009,-0.00353 0.009,-0.013475 0.0145,-0.019481 0.002,-0.00226 0.005,-0.00233 0.007,-0.00445 0.0215,-0.02424 -0.0174,0.0095 0.008,-0.011856 8.5e-4,-0.00261 0.002,-0.00486 0.003,-0.00688 0.002,-0.00173 0.004,-0.00414 0.005,-0.00614 0.002,-0.00226 0.001,-0.00518 0.003,-0.00763 0.002,-0.00226 0.005,-0.00262 0.007,-0.00468 0.004,-0.00379 0.007,-0.00874 0.0103,-0.012732 0.0109,-0.00462 0.011,-0.01757 0.0176,-0.024896 0.009,-0.00524 0.005,-0.00158 0.0112,-0.00927 0.009,-0.012317 0.0198,-0.024668 0.0291,-0.037491 0.005,-0.00341 0.008,-0.00869 0.0118,-0.013767 8.2e-4,-0.00644 0.001,-0.011899 0.002,-0.013961 9.9e-4,-0.00614 0.004,-0.011747 0.006,-0.017327 1.1e-4,-0.00208 9e-5,-0.00245 1.6e-4,-0.0041 6.7e-4,-0.00239 0.002,-0.0049 0.003,-0.0076 9.9e-4,-0.00715 0.001,-0.015161 0.002,-0.022371 0.009,-0.017108 0.013,-0.0406 0.0164,-0.06302 0.004,-0.027378 0.01,-0.047268 0.0164,-0.063016 -6.3e-4,-0.00562 -0.002,-0.010888 -0.003,-0.016508 -0.001,-0.023236 0.005,-0.03245 -9.6e-4,-0.023206 6.4e-4,-0.00352 0.001,-0.018559 0.003,-0.029213 -5e-4,0.00179 -0.001,0.00476 -0.003,0.00322 0.006,-0.012572 5.1e-4,1.6e-4 7.1e-4,-0.028307 3e-5,-3.302e-4 3.7e-4,-8.051e-4 3.3e-4,-0.00119 l -3.9e-4,-2.927e-4 3.6e-4,-4.499e-4 c 1.5e-4,-9.676e-4 1.2e-4,-0.00171 2.7e-4,-0.00268 -0.003,-0.00367 -0.009,-0.019459 -5.1e-4,-0.012327 -2.7e-4,-0.002 -2.8e-4,-0.00413 -6.3e-4,-0.00609 1.2e-4,-0.00171 2.7e-4,-0.00268 1.8e-4,-0.00479 l 3.3e-4,-0.00119 c -3e-4,-0.00275 -0.001,-0.00618 4.4e-4,-0.00741 -1.7e-4,5.933e-4 -0.001,0.00287 -0.001,0.00254 6e-5,-0.013344 0.001,-0.00734 0.001,-0.013789 -7.7e-4,-0.00439 -0.002,-0.010497 -7e-4,-0.00826 0.001,0.00147 8.9e-4,0.00354 9.8e-4,0.00566 6.4e-4,-0.022846 8.2e-4,-0.016592 0.005,-0.054761 -4.3e-4,-0.00104 -5.7e-4,-4.728e-4 -8.2e-4,-0.00133 6.4e-4,-0.00805 0.002,-0.016456 0.002,-0.024547 -0.003,-0.00788 0.004,-0.016308 0.005,-0.024432 -6.5e-4,-0.00192 -9.5e-4,-0.00323 -5.7e-4,-0.00464 -6.6e-4,-3.535e-4 -0.002,-7.209e-4 -0.002,-0.00146 0.002,-0.00637 0.006,-0.012908 0.008,-0.019239 -1e-4,-0.00429 -0.002,-0.00852 -8.9e-4,-0.012605 3.6e-4,-0.00485 0.003,-0.00948 0.004,-0.013975 0.004,-0.012193 0.003,-0.015186 0.007,-0.029533 0.002,-0.006 0.004,-0.011952 0.006,-0.017777 2.8e-4,-0.00231 0.002,-0.00523 0.003,-0.0076 7e-5,-3.084e-4 3.8e-4,-7.978e-4 3.3e-4,-0.00119 l -3e-5,-7.426e-4 c -2.3e-4,-8.89e-4 -4.7e-4,-0.00215 -5.2e-4,-0.00326 4e-5,-2.991e-4 0.003,-0.00613 0.005,-0.010508 0.003,-0.020993 0.009,-0.041564 0.0172,-0.061722 -5.3e-4,0.00105 -2.9e-4,0.00231 -0.002,0.0038 0.001,-0.00246 8e-4,-0.00451 0.002,-0.00698 -3.8e-4,-0.00352 5e-5,-0.00842 -5.1e-4,-0.012327 1.2e-4,0.00297 -0.001,-0.00552 -0.002,-0.012021 -6.2e-4,-0.00463 -5.2e-4,-0.00557 -0.002,-0.00955 -4.9e-4,7.159e-4 -0.002,0.00144 -0.003,0.00175 1.4e-4,-0.00134 6.4e-4,-9.627e-4 7e-4,-0.00164 l 7.6e-4,-1.572e-4 c -2.2e-4,-5.109e-4 -6.5e-4,-7.609e-4 -8.2e-4,-0.00133 6e-5,-3.157e-4 -4.7e-4,-0.00215 -4.9e-4,-0.00252 -0.001,-0.00147 -0.003,-0.00288 -0.004,-0.00507 -0.002,-0.00329 -0.002,-0.00372 -0.002,-0.00578 1.3e-4,-0.00134 5.7e-4,-0.00383 0.001,-0.00322 0.003,0.00546 -0.001,0.00209 0.005,0.00372 -0.008,0.00439 -0.0311,-0.043259 -0.0355,-0.054441 -8.5e-4,-0.00207 6.4e-4,-0.00431 1.2e-4,-0.00624 -8.5e-4,-0.00207 -0.004,-0.00323 -0.005,-0.00446 -0.002,-0.00569 -0.003,-0.011621 -0.005,-0.0172 -0.002,-0.00399 -1.2e-4,-0.00859 -0.004,-0.010559 -0.003,-0.00151 0.004,0.01384 0.003,0.010693 -0.004,-0.010779 -0.01,-0.024538 -0.0138,-0.035536 -0.0118,-0.00802 -0.0123,-0.031092 -0.016,-0.044212 -0.005,-0.017165 -0.005,-0.014391 -0.005,-0.00806 -0.004,-0.00548 -0.004,-0.013112 -0.006,-0.019961 7.2e-4,-5.447e-4 0.002,-0.00159 0.002,-0.00196 -0.002,-0.010839 -0.006,-0.020669 -0.01,-0.031228 0.0172,-0.027785 -0.007,-0.013661 -0.008,-0.020945 -6e-4,-0.00368 5.7e-4,-0.00864 2.3e-4,-0.012462 -7.8e-4,-0.00345 -0.002,-0.00488 -0.004,-0.00765 -0.001,-0.00762 -0.002,-0.015852 -0.003,-0.02347 -9.2e-4,-8.15e-4 -0.002,-7.209e-4 -0.002,-0.00216 -7e-4,-0.00304 -7.8e-4,-0.00591 -0.001,-0.00926 -6.5e-4,-0.00192 3.5e-4,-0.00356 -0.002,-0.00549 -0.003,-0.014565 0.004,-0.012616 -0.002,-0.013469 -0.004,-0.011938 0.003,0.00936 -6.3e-4,-0.015223 -6e-5,-0.00149 -9.5e-4,-0.00323 -0.002,-0.00465 2.2e-4,5.154e-4 -0.001,0.00246 -0.001,0.00209 -2.4e-4,-0.00126 -0.001,-0.00604 1.8e-4,-0.00479 7.3e-4,6.642e-4 4.6e-4,0.00178 8.9e-4,0.00281 -0.001,-0.00884 -0.003,-0.018847 -0.004,-0.027387 -0.01,0.00722 0.004,-0.034684 -0.0102,-0.039924 -0.001,-0.00848 -0.009,-0.025478 -0.0121,-0.03919 l -3.9e-4,-2.927e-4 c -8e-5,-0.00186 7.4e-4,-5.285e-4 7e-4,-0.00164 -1.1e-4,-0.0026 -0.001,-0.00486 6.3e-4,-0.00313 -0.007,-0.00102 -8e-4,-9.567e-4 -0.001,0.00283 -3.7e-4,4.455e-4 -0.002,6.179e-4 -0.003,-1.138e-4 -0.01,-0.023185 -0.0183,-0.048081 -0.0258,-0.072552 1.2e-4,-0.00171 2.4e-4,-0.00342 -5.8e-4,-0.00536 -4.4e-4,-0.00141 -0.008,-0.037225 -0.0104,-0.042844 l -7.6e-4,1.572e-4 c -3e-4,0.00194 0.002,0.00473 2.7e-4,0.00653 -2.7e-4,-0.002 -7.7e-4,-0.00428 -0.001,-0.00636 -7.5e-4,1.572e-4 -0.001,9.784e-4 -0.002,4.716e-4 -0.001,-0.00147 2.9e-4,-0.00641 5.3e-4,-0.00522 -7.8e-4,-0.012703 -0.009,-0.02787 -0.0109,-0.037597 -0.003,-0.012016 -0.004,-0.024672 -0.006,-0.036779 0.0213,0.046968 -0.003,-0.03985 -0.002,-0.031017 9e-4,0.00657 0.007,0.031693 -0.003,-0.011436 -0.003,-0.00964 4.9e-4,-0.020043 -8.9e-4,-0.030169 -5.2e-4,-0.00326 -0.002,-0.00638 -0.003,-0.00925 0.003,-0.00858 -4.2e-4,-0.02637 -0.002,-0.028864 -0.002,-0.020594 -0.003,-0.039685 -0.007,-0.059709 -0.003,-0.016757 -0.007,-0.032412 -0.008,-0.049822 6e-5,-0.0032 10e-4,-0.00685 -4e-5,-0.00986 -0.001,-0.00185 -0.004,-0.00235 -0.005,-0.00417 -0.006,-0.012763 -0.003,-0.040385 -0.003,-0.055684 -9e-4,-0.00463 -7.3e-4,-0.00878 -0.002,-0.013469 -0.003,-0.018814 -0.003,-0.037294 -0.003,-0.05496 -9.9e-4,-0.01513 -0.007,-0.026681 -0.007,-0.043886 -0.004,-0.00707 -0.009,-0.013742 -0.0121,-0.020903 2.7e-4,0.002 8.1e-4,0.00427 10e-4,0.00636 2.1e-4,5.154e-4 -4.3e-4,-0.00104 -0.002,-0.00171 -0.003,-0.00766 -0.006,-0.014416 -0.0106,-0.021938 0.004,0.00513 0.007,0.010957 0.0104,0.016865 -0.004,-0.028959 -0.0104,-0.056902 -0.0129,-0.086192 -0.002,-0.020386 0.002,-0.042456 -7.2e-4,-0.062389 -0.002,-0.009 -0.002,0.01879 -0.004,0.02819 -0.002,9.89e-4 -0.003,0.0021 -0.005,0.0043 -0.003,0.0029 -0.006,0.0069 -0.007,0.0045 -0.003,-0.0091 7.3e-4,-0.02022 0.002,-0.03035 7e-4,0.0072 0.005,0.0141 0.005,0.02491 8.6e-4,-0.0042 0.004,-0.0082 0.002,-0.01251 -0.01,-0.03499 -0.005,-0.01479 -0.0102,-0.02862 0.002,0.0061 6.3e-4,0.0078 0.002,0.01202 5e-5,0.0011 -7e-5,0.0028 -1.5e-4,0.0041 -4.7e-4,-0.0043 -5.3e-4,-0.01043 -0.003,-0.01594 -4.4e-4,-0.0014 -1.2e-4,-0.003 -5.7e-4,-0.0046 -0.0182,-0.05494 -9.9e-4,0.02515 -0.029,-0.09602 -0.008,-0.03638 -0.009,-0.0757 -0.0221,-0.109886 -0.001,-0.0026 -0.005,0.0035 -0.008,0.0053 0.002,-0.0056 0.007,-0.01218 0.006,-0.01733 -0.003,-0.01492 -0.0137,-0.02602 -0.0177,-0.04058 -0.003,-0.01209 -3e-4,-0.0252 -0.003,-0.03741 -8.3e-4,-0.0035 -2.6e-4,0.009 -0.004,0.0118 -0.002,0.0017 -0.0142,-0.04888 -0.0149,-0.0525 -0.01,-0.04667 -0.0398,-0.146416 -0.0675,-0.222263 -10e-4,-0.004 -0.002,-0.0081 -0.003,-0.01214 -0.003,-0.01026 -0.009,-0.02816 -0.0125,-0.04019 -7.2e-4,-0.0034 -0.002,-0.0061 -0.002,-0.0094 -4e-4,-2.86e-4 -2.7e-4,-4.43e-4 -7.8e-4,-5.85e-4 -6e-5,-2.67e-4 -1.1e-4,-0.0026 -1.3e-4,-0.003 1.7e-4,-5.96e-4 0.002,7.21e-4 0.003,8.13e-4 -0.0115,-0.04254 -0.0229,-0.08492 -0.0344,-0.127451 -0.007,-0.07841 -0.004,-0.06602 -0.002,-0.06832 -0.008,-0.02742 -0.0172,-0.05456 -0.0294,-0.07802 -0.003,-0.0058 6.8e-4,0.01314 0.002,0.01971 -0.0204,-0.03334 -0.0222,-0.07646 -0.0276,-0.117513 9.9e-4,0.0046 0.003,0.01133 0.004,0.01416 0.003,0.0064 0.0158,0.02179 0.0123,0.01611 -0.008,-0.01151 -0.0112,-0.02427 -0.0172,-0.03592 -2.9e-4,-0.0024 -0.002,-0.0042 -0.002,-0.0062 -0.007,-0.01405 -0.0143,-0.02904 -0.0212,-0.04315 7.1e-4,-0.0013 8.9e-4,-0.0038 0.003,-0.0014 -0.002,-0.004 -0.002,-0.0089 -0.004,-0.013 l -3.9e-4,-2.92e-4 c -7.7e-4,8.69e-4 -2.3e-4,0.0066 1e-4,0.01131 -0.001,-0.0028 -0.003,-0.0059 -0.004,-0.0087 -3e-5,-7.42e-4 -2.6e-4,-0.0016 -7e-5,-0.0015 l -7.5e-4,1.57e-4 c -0.007,-0.01541 -0.015,-0.03048 -0.0233,-0.04748 -0.0344,-0.05546 -0.0174,-0.04322 -0.0454,-0.112378 -0.0153,-0.03856 -0.0342,-0.04294 -0.0108,-0.03543 -0.0202,-0.01102 0.002,0.0044 -0.0113,-0.02947 -0.003,-0.0083 -0.009,-0.01682 -0.0151,-0.02174 -0.002,-0.0017 -4.5e-4,0.01144 -0.002,0.0092 -9e-4,-0.0043 5.1e-4,-0.0084 6e-4,-0.01291 -0.008,-0.01986 -0.0151,-0.03984 -0.0226,-0.05967 -0.0559,-0.126199 -0.004,0.04654 -0.0515,-0.107086 -0.009,-0.01276 -0.0117,-0.03161 -0.0259,-0.03815 -0.009,-0.0038 0.004,0.01911 0.006,0.02837 0.006,0.02291 -0.0158,-0.04445 -0.0266,-0.06471 -0.0315,-0.05875 -0.0226,-0.01891 -0.028,-0.04611 -0.005,-0.02023 -0.0228,-0.04685 -0.044,-0.08047 -0.009,-0.01409 -0.0239,-0.02303 -0.0315,-0.03809 -0.013,-0.02649 -0.019,-0.05678 -0.0285,-0.08514 -0.02,-0.03924 -0.0537,-0.07839 -0.0663,-0.122297 -0.006,-0.02237 -0.004,-0.04845 -0.0108,-0.07055 -0.005,-0.01576 -0.0181,-0.02676 -0.0249,-0.04167 -0.009,-0.0206 -0.0161,-0.04271 -0.0239,-0.06415 -0.008,-0.08439 -0.005,-0.06119 -0.005,-0.04173 l -7.8e-4,-5.85e-4 c -2.1e-4,0.01126 -0.003,0.0091 -0.009,-0.0073 z m -2.39934,10.5005275 c -0.001,8.95e-5 -0.003,1.79e-4 -0.004,5.373e-4 -3.8e-4,7.86e-5 -0.002,7.643e-4 -0.003,9.215e-4 -0.007,0.00184 -0.0175,0.00555 0.002,4.282e-4 0,0 3.6e-4,-4.499e-4 3.6e-4,-4.499e-4 0,0 3.9e-4,2.927e-4 3.9e-4,2.927e-4 0.002,-6.18e-4 -2.5e-4,-7.89e-5 0.003,-9.215e-4 7.6e-4,-1.572e-4 0.001,-6.072e-4 0.002,-7.644e-4 z m -2.32817,-3.3606325 c 0.005,-0.0057 0.0103,-0.0116 0.0138,-0.01786 0.003,-0.0052 -0.001,-0.0068 -0.007,3.63e-4 l -7.3e-4,8.99e-4 c -0.002,0.0023 -0.004,0.01231 -0.006,0.01661 z m -0.0461,0.06843 c -0.007,0.01021 -0.009,0.0095 -0.019,0.02881 -0.006,0.01094 -0.0275,0.04315 -0.0203,0.03273 0.0132,-0.02052 0.0262,-0.04089 0.0393,-0.06154 z m -0.16955,0.442908 c -0.001,0.0107 0.006,0.01312 0.0137,0.01508 7e-5,-0.0036 2.8e-4,-0.0068 2.9e-4,-0.01101 -0.005,3.25e-4 -0.009,-0.003 -0.014,-0.004 z m 0.014,0.004 c -1e-5,0.0047 6.1e-4,8.08e-4 4.5e-4,0.01088 7.7e-4,2.16e-4 8.1e-4,5.61e-4 0.002,7.21e-4 7.1e-4,-0.0061 0.002,-0.01203 0.001,-0.01815 -3.1e-4,8.7e-5 -2.3e-4,0.005 -0.002,0.0056 l -4.6e-4,-3.38e-4 -3.6e-4,4.5e-4 -3.6e-4,4.5e-4 z m 0.003,-0.0081 c 1e-5,3.65e-4 -4.1e-4,7.73e-4 -3.3e-4,0.0012 3e-5,-1.2e-5 7.1e-4,-0.0013 7.2e-4,-9e-4 z m -0.0175,0.072753 c -0.0137,0.054292 -0.0163,0.1185013 7e-4,0.00826 -5e-4,-0.00289 -7e-5,-0.00545 -7e-4,-0.00826 z m 0.54364,1.4401056 c 7.3e-4,0.00421 0.003,0.00759 0.005,0.011407 0.001,-0.00397 7.8e-4,-0.00803 0.001,-0.011891 -0.002,2.17e-5 -0.007,-0.00156 -0.006,5.061e-4 z m 0.012,0.027148 c 0.002,0.00221 0.003,0.00526 0.005,0.00711 -4.7e-4,-6.01e-4 -0.001,-0.00694 -0.001,-0.00855 -0.002,0.00114 -0.003,5.503e-4 -0.004,0.00146 z m 0.005,0.00711 c 8e-4,9.545e-4 -1.9e-4,0.014007 8.8e-4,0.012605 0.003,-0.00378 0.002,-0.00386 0.004,-0.00675 -0.002,-0.00181 -0.003,-0.00408 -0.005,-0.00592 z m 1.991,1.3053924 c 0.003,-1.789e-4 0.005,-1.79e-4 0.008,-2.419e-4 0.003,-6.289e-4 0.0122,-0.00225 0.009,-0.00155 -0.006,7.2e-4 -0.0117,0.00118 -0.0175,0.00179 z m -1.44301,2.4154589 7.86615,5.8343044 4.86835,-6.0196725 c -0.0271,0.00146 -0.054,0.003 -0.0812,0.00441 -0.0109,0.00196 -0.0217,0.00511 -0.0322,0.00632 -0.01,8.938e-4 -0.0191,-5.039e-4 -0.0288,-2.525e-4 0.0232,-0.016831 0.0573,-0.051381 -0.0533,0.011777 -0.20407,-0.00522 -0.0105,-6.534e-4 -0.0932,0.00469 -0.0399,0.020807 -0.0795,0.042159 -0.11997,0.061438 6.8e-4,0.00267 0.003,0.00367 4.5e-4,0.010879 -0.007,0.016075 -0.0326,0.012392 -0.0485,0.018834 -0.092,0.048418 -0.18295,0.095694 -0.27736,0.1394082 -0.11749,0.048234 -0.0836,0.054293 -0.0573,0.014436 0.005,-0.00651 -0.0117,0.011314 -0.0176,0.017184 -0.0291,0.016974 -0.008,0.00335 -0.0626,0.048456 -0.0264,0.016259 -0.056,0.024378 -0.0828,0.039829 -0.004,0.00259 -0.004,0.014256 -0.009,0.01244 -0.004,-0.00117 0.008,-0.013105 0.003,-0.01411 -0.007,-0.00134 -0.0145,0.0073 -0.0216,0.011419 -0.028,0.064828 -0.08,0.0557 -0.13219,0.081892 -0.0442,0.022142 -0.12336,0.09529 -0.17167,0.1207924 -0.13043,0.07453 -0.26196,0.1471716 -0.38703,0.2330886 -0.1336,0.072507 -0.26789,0.1420482 -0.3976,0.2210179 l 7.9e-4,5.853e-4 c -0.85821,0.5223899 -1.53705,-6.632e-4 -1.62468,-0.6934331 -0.0592,0.00399 -0.12034,0.011134 -0.17795,0.00507 -0.014,-0.00146 -0.0256,-0.0083 -0.04,-0.00854 -0.0339,-4.201e-4 -0.0706,0.033478 -0.1034,0.010463 -0.10399,0.00535 -0.21061,0.010209 -0.30765,-0.00608 -0.0239,-4.193e-4 -0.0497,-0.010559 -0.0724,0.00256 -0.002,0.00136 0.01,0.00348 0.008,0.00306 -0.074,-0.00926 -0.14839,-0.014395 -0.22439,-0.016023 -0.0912,-0.00678 -0.18119,-0.015156 -0.26376,-0.04663 8.1e-4,9.499e-4 0.002,3.496e-4 0.003,0.00156 0.006,0.010719 -0.0509,-0.00638 -0.038,-0.00566 0.0102,6.196e-4 0.0203,0.00209 0.0304,0.00284 9.1e-4,4.369e-4 0.003,-1.112e-4 0.004,2.054e-4 -0.0241,-0.033174 -0.0941,-0.00554 -0.12697,-0.017567 -0.0593,0.00402 -0.13643,-0.00232 -0.18028,-0.033211 -4.6e-4,-2.117e-4 -0.002,0.00173 -0.003,0.00205 -0.008,0.00177 -0.0157,0.00317 -0.0233,0.00521 -0.0116,-0.02876 -0.14781,0.00212 -0.17767,-0.024245 -0.0104,-6.174e-4 -0.0209,-0.00103 -0.0314,-0.00154 l -7.6e-4,1.572e-4 -3.9e-4,-2.927e-4 c -5.8e-4,-6.77e-5 -0.001,6.071e-4 -0.002,4.716e-4 -0.001,2.359e-4 -0.002,-9.615e-4 -0.004,-6.552e-4 -0.0156,0.00235 -0.0316,0.00375 -0.0472,0.00504 -0.0177,-7.498e-4 -0.37528,-0.029394 -0.21464,-0.015119 0.002,-6.18e-4 0.002,-0.00159 0.005,-0.0025 -0.0103,1.319e-4 -0.0206,3.303e-4 -0.0307,-9.441e-4 -7.7e-4,-2.186e-4 -0.002,-5.745e-4 -0.002,-7.209e-4 -0.0271,0.00262 -0.0574,0.00184 -0.0867,-0.00105 -0.019,-8.539e-4 -0.0386,-0.00442 -0.0573,-0.00385 -0.005,-0.00228 -0.0161,-0.0054 -0.0175,-0.00662 0.004,4.45e-4 0.007,-8.815e-4 0.0139,0.00115 -0.006,-8.53e-4 -0.0124,-0.0021 -0.0184,-0.00242 -5.8e-4,-7e-5 5.7e-4,4.638e-4 0.002,0.00101 -0.0102,-0.00303 -0.0178,-0.00744 -0.0345,-0.00309 -0.012,-0.00131 -0.0231,-0.00472 -0.035,-0.00627 -0.0171,2.687e-4 -0.0326,2.625e-4 -0.0425,7.643e-4 -0.0601,0.00281 -0.045,0.017393 -0.0622,-0.00394 0.004,-0.00219 0.0178,-0.00789 0.0135,-0.00683 -0.009,0.00183 -0.0175,0.00613 -0.0269,0.00887 -0.006,-0.00194 -0.0106,-0.00609 -0.017,-0.00562 -0.006,5.14e-4 -0.0136,0.00283 -0.0204,0.00459 -0.004,0.00182 -3.7e-4,8.15e-5 -0.004,0.00191 -0.003,3.25e-5 -0.003,4.038e-4 -0.006,5.061e-4 -0.01,0.00273 -0.0188,0.00157 -0.0287,0.00264 -0.0722,0.00376 -0.12314,0.00732 -0.16846,0.01773 -0.071,0.01259 -0.0634,0.00999 -0.0727,0.011422 -0.0125,0.00225 -0.0248,0.00438 -0.0375,0.00666 l -7.5e-4,1.573e-4 c -0.0118,0.00212 -0.0231,0.00421 -0.0349,0.00651 -0.0619,0.010024 -0.11611,0.020485 -0.17672,0.025659 -0.0332,0.00287 -0.0665,0.00135 -0.0999,0.00607 -0.005,6.437e-4 -0.008,0.00911 -0.0134,0.00973 -0.003,3.26e-5 0.003,-0.00614 0.004,-0.00893 -0.0147,-0.00126 -0.0296,-0.00229 -0.0446,-0.00356 -0.0311,0.00347 -0.062,1.26e-5 -0.0931,0.00759 -0.0155,0.00383 -0.03,0.014887 -0.0455,0.018948 -0.0184,0.00477 -0.0956,-0.021122 -0.10115,0.00159 -0.0992,0.017589 -0.16887,0.00804 -0.26518,0.018396 -0.0121,0.00131 -0.0231,0.012068 -0.0353,0.01389 -0.0258,0.00415 -0.0463,-0.023141 -0.0736,-0.010335 -0.10715,0.00932 -0.14082,-0.012636 -0.19763,0.00805 -0.12579,-3.817e-4 -0.2527,0.00294 -0.37487,-0.00604 -0.016,-0.0024 -0.0312,-0.00404 -0.047,-0.00673 -0.002,-3.495e-4 -0.0102,-4.486e-4 -0.008,-0.00166 0.008,-0.00375 0.0327,-0.00646 0.0244,-0.00653 -0.0373,0.00109 -0.0758,0.02286 -0.11297,0.023051 -0.0134,1.003e-4 -0.0226,-0.00973 -0.0342,-0.014846 -0.0685,-0.00849 0.009,-0.00215 -0.0877,0.00245 -0.0847,0.00404 -0.17471,0.0029 -0.25181,-0.019483 -0.007,-2.92e-4 -0.013,-6.32e-4 -0.0198,-6.438e-4 0.004,-0.0014 0.006,-0.00123 0.0103,-0.00359 0.007,3.291e-4 0.0275,0.00294 0.021,7.871e-4 -0.0122,-0.00397 -0.0248,-0.00719 -0.0384,-0.00668 -0.0119,4.621e-4 -0.024,0.00423 -0.0359,0.00707 2.1e-4,1.306e-4 5.8e-4,4.548e-4 7.9e-4,5.854e-4 -7.6e-4,1.572e-4 -0.002,-1.246e-4 -0.003,-1.137e-4 -0.005,0.00122 -0.0101,0.00287 -0.0152,0.0035 -9.6e-4,1.09e-5 -0.0114,-0.00144 -0.0184,-0.00242 l -0.001,-1.355e-4 c -2.8e-4,-3.39e-5 -8.2e-4,-9.364e-4 -8.2e-4,-0.00133 l 7.5e-4,-1.572e-4 c -2.5e-4,-4.704e-4 0.001,-0.00104 0.001,-0.00209 -0.002,-3.496e-4 -0.005,2.692e-4 -0.007,-6.46e-5 -0.002,2.17e-5 0.003,-0.00246 0.004,-0.00409 -0.005,0.00137 -0.0106,0.00305 -0.0159,0.00438 0.007,6.858e-4 0.0105,9.505e-4 0.0165,0.00169 l -3.7e-4,4.499e-4 c -0.0101,0.00161 -0.0202,0.00356 -0.03,0.00514 -0.004,-0.00224 -0.002,-0.00185 -0.003,-0.00303 -0.0116,0.00295 -0.0231,0.00572 -0.0348,0.00866 -0.18117,0.022587 -0.0401,-0.01661 -0.1612,0.021712 -0.0745,-0.010667 -0.25109,-0.00802 -0.28083,0.00116 -0.004,0.00524 -0.009,-0.00696 -0.0156,-0.00664 -0.0515,0.00396 -0.10255,0.00923 -0.15354,0.00842 -0.02,0.00752 -0.0395,0.018617 -0.06,0.022301 -0.0614,0.01115 -0.11344,-0.027687 -0.17549,0.00127 -0.0661,0.00121 -0.031,-0.00251 -0.10595,0.012086 -0.0157,5.573e-4 -0.0316,-0.00155 -0.0468,-0.00383 -5.5e-4,-1.082e-4 -7.6e-4,1.572e-4 -0.002,2.17e-5 l -7.6e-4,1.572e-4 c -0.0101,-0.00159 -0.0202,-0.0036 -0.0307,-0.00242 -0.002,3.93e-4 -6.4e-4,0.00313 -0.002,0.0063 l -3.6e-4,4.499e-4 c 0.0106,-0.0024 0.0215,-0.00495 0.0312,-0.00353 0.005,0.00443 -0.0247,0.014004 -0.0364,0.013044 -0.003,-4.265e-4 4.7e-4,-0.00483 0.004,-0.00963 -0.009,0.00207 -0.0181,0.00202 -0.0271,0.00306 -0.0297,0.00194 -0.0592,0.00372 -0.089,0.00566 -0.005,0.00145 -0.01,0.00231 -0.0148,0.00379 9.8e-4,-0.00316 0.006,-0.00935 0.003,-0.00975 -0.0573,-0.00188 -0.12148,0.021677 -0.17975,0.024826 -0.0325,-3.186e-4 -0.0662,0.0017 -0.0977,-0.00426 -0.0156,-0.00297 -0.0293,-0.010518 -0.0453,-0.011807 -0.002,2.17e-5 -0.005,0.00153 -0.007,0.004 0.003,-2.575e-4 0.006,-3.351e-4 0.009,-3.766e-4 0.004,-2.684e-4 -0.009,0.00609 -0.0115,0.00273 -4.1e-4,-6.64e-4 0.002,2.032e-4 7.3e-4,-8.998e-4 -0.0121,7.32e-4 -0.024,0.00187 -0.0361,0.00273 -0.07,0.00192 -0.14217,-0.00144 -0.17977,-0.0026 -0.0141,-9.171e-4 -0.0278,-0.00516 -0.0423,-0.00256 -0.0217,0.00399 -0.0217,0.00722 -0.0172,0.00977 -0.0277,-0.010182 -0.0527,-0.01254 -0.087,0.00157 -0.0154,-0.017329 0.004,0.00119 -0.0586,0.010678 -0.0798,0.012003 -0.16344,0.016836 -0.24079,0.011878 -0.016,0.00176 -0.0624,0.00809 -0.0478,-0.00105 0.005,-0.00308 0.0216,-0.00184 0.0163,-0.00265 -0.05,-0.0079 -0.10269,0.013539 -0.15191,0.0026 -0.0399,0.00553 -0.0683,0.013624 -0.105,0.00787 -0.0171,-0.00265 -0.0323,-0.011343 -0.0498,-0.012339 -0.002,2.17e-5 -0.002,0.00173 -0.004,0.00337 0.002,-2.467e-4 0.003,-4.039e-4 0.005,-6.27e-4 -0.004,0.00182 -0.01,0.00926 -0.0102,0.00577 l -7.9e-4,-5.854e-4 c -2.7e-4,-0.002 0.003,-0.00299 0.005,-0.00468 -0.0153,0.00196 -0.0307,0.00392 -0.0461,0.00589 -0.0692,-0.00837 -0.14343,-0.00496 -0.21166,-0.015007 -0.0164,-0.00237 -0.0299,-0.012206 -0.0462,-0.0153 -0.0912,-0.01703 -0.0523,0.00981 -0.0867,-0.01788 -0.1,0.019976 -0.21635,-0.054412 -0.30688,-0.068775 0.0115,-0.0051 0.0215,-6.235e-4 -0.0163,-0.00505 -0.036,-0.026726 0.0107,0.00284 -0.0785,-0.010427 -0.0796,-0.011813 -0.14652,-0.050887 -0.22149,-0.072213 -0.0141,0.00562 -0.0238,-0.00872 -0.0258,-0.00927 -0.0189,-0.00351 -0.0395,-0.00106 -0.0585,-0.0047 -0.1215,-0.023613 -0.0318,-0.022154 -0.11477,-0.020462 -0.0193,-0.00849 -0.043,-0.012817 -0.0643,-0.020303 -0.0254,-0.00455 -0.0592,-0.012406 -0.0646,-0.00928 0.002,0.00365 0.0122,0.012298 0.007,0.012392 -0.0113,3.216e-4 -0.0204,-0.00666 -0.0307,-0.010088 -0.0755,0.011519 -0.1257,0.023322 -0.20866,0.039228 z m 0.17956,-0.038317 3e-5,7.426e-4 c 0.008,-0.00147 0.009,-0.00131 0.0148,-0.00235 -0.003,-1.138e-4 -0.007,2.728e-4 -0.0108,4.051e-4 -9.2e-4,7.535e-4 -0.003,6.289e-4 -0.004,0.00117 z m 0.0679,-0.010058 c 0.006,-7.111e-4 0.01,-0.00146 0.0212,-0.00257 l 7.5e-4,-1.572e-4 c 0.003,-2.575e-4 0.002,-4.716e-4 0.006,-9.335e-4 0.006,-5.14e-4 0.0576,-0.049955 -0.0282,0.00366 z m 2.47538,-2.3884477 c -3.5e-4,8.212e-4 0.002,-3.253e-4 0.004,-5.372e-4 -7.6e-4,1.572e-4 -0.002,-4.282e-4 -0.002,-2.71e-4 -5.5e-4,3.065e-4 -0.002,-5.69e-5 -0.002,7.643e-4 z m 0.80367,-0.011891 c 9.6e-4,3.716e-4 0.002,7.994e-4 0.003,0.00126 0.002,-3.144e-4 0.002,-8.429e-4 0.004,-0.00117 0.001,-2.359e-4 0.004,-4.148e-4 0.003,-6.289e-4 -0.002,-8.672e-4 -0.004,-4.248e-4 -0.007,-6.46e-5 -10e-4,2.358e-4 -0.002,6.18e-4 -0.003,6.288e-4 z m 2.1151,-0.019684 c 0.0178,0.00325 0.0374,-0.00171 0.0563,-0.00253 -0.006,0.00353 -0.0144,0.0082 -0.0105,0.00767 0.01,-0.00104 0.0198,-0.0047 0.0296,-0.00759 -0.004,-4.449e-4 -0.007,-4.855e-4 -0.0109,-0.00104 -0.005,5.695e-4 -7.6e-4,1.572e-4 -0.007,0.00111 9e-4,-7.725e-4 6e-4,-9.891e-4 0.002,-0.00196 -0.009,-0.00139 -0.0177,-0.0037 -0.0271,-0.00391 -0.0107,-2.721e-4 -0.0391,0.0056 -0.0325,0.0082 z m 0.0596,-0.0043 3.9e-4,2.927e-4 7.6e-4,-1.572e-4 c 0.002,-2.17e-5 0.003,6.222e-4 0.004,6.553e-4 0.0144,-0.00181 0.0202,-0.00314 0.0245,-0.0036 -0.002,-4.959e-4 -0.004,-0.00158 -0.005,-0.00195 l -3.9e-4,-2.926e-4 c -0.0145,0.00158 -0.0135,-3.814e-4 -0.0201,0.00125 -0.002,3.93e-4 -0.002,0.00214 -0.004,0.00337 z m 0.0305,-0.00266 c 4.7e-4,2.072e-4 8.2e-4,5.472e-4 0.002,7.209e-4 0.004,-0.00106 0.008,-0.00175 0.0114,-0.00273 -0.002,7.643e-4 -0.0102,0.00168 -0.0134,0.00204 z m 0.0127,-4.19e-4 c 7.3e-4,-5.358e-4 7.5e-4,6.304e-4 0.002,7.209e-4 4e-5,-3.155e-4 -9.9e-4,-7.295e-4 -4.3e-4,-0.00104 z m 0.002,7.209e-4 -7.6e-4,1.572e-4 c 2.1e-4,3.33e-5 5.6e-4,4.795e-4 7.9e-4,5.854e-4 z m 3e-5,7.426e-4 -7.6e-4,1.572e-4 c 2.2e-4,8.74e-5 5.6e-4,4.795e-4 7.9e-4,5.854e-4 z m 3e-5,7.426e-4 -7.6e-4,1.572e-4 c 2.3e-4,1.081e-4 5.6e-4,4.75e-4 7.9e-4,5.854e-4 z m 3e-5,7.426e-4 c 2.1e-4,5.176e-4 4.3e-4,0.00104 4.6e-4,0.00178 0.002,4.959e-4 0.004,0.00123 0.006,0.00162 -0.002,-0.00134 -0.005,-0.00228 -0.007,-0.00339 z m 2.35017,-0.034402 c 0.002,0.00109 0.008,0.00342 0.0102,0.00337 9.4e-4,-3.822e-4 0.004,-9.324e-4 0.006,-0.0015 -0.008,-0.00139 -0.0163,-0.00289 -0.015,-0.002 z m 0.17509,0.00686 c 0.004,5.9e-5 0.007,-0.00127 0.0107,-0.0026 -0.002,-7.209e-4 -0.004,-0.00145 -0.006,-0.00117 -0.002,3.93e-4 -0.004,0.00338 -0.004,0.0038 z m -1.91926,2.5233136 c -0.002,0.00211 -6.4e-4,0.00637 4e-4,0.010159 0.006,-0.00177 0.0174,-0.00387 0.0181,-0.00486 0.004,-0.00611 -0.0113,-0.00767 -0.0185,-0.00532 z m 2.09582,-2.5167608 c 0.002,-2.17e-5 0.005,5.512e-4 0.007,3.427e-4 -9.7e-4,-3.604e-4 -0.003,-9.149e-4 -0.004,-9.333e-4 -0.001,2.358e-4 -0.002,6.18e-4 -0.003,6.288e-4 z m 0.18788,1.858e-4 c 3.2e-4,-4.75e-5 7.8e-4,2.14e-4 0.001,1.354e-4 3.6e-4,-9.32e-5 0.004,-9.435e-4 0.006,-0.00195 -0.002,6.18e-4 -0.004,0.00108 -0.007,0.00181 z m -1.96733,2.4806219 c -8e-5,0.00282 -0.001,0.00619 -1.3e-4,0.00624 0.003,1.137e-4 0.008,-0.00385 0.0128,-0.00668 -0.003,-4.265e-4 -0.005,-3.901e-4 -0.008,-9.134e-4 -0.003,0.001 -0.002,1.681e-4 -0.005,0.00137 z m 3.26795,-2.5512679 c -0.003,-0.00258 -0.0269,-0.01332 0.0231,0.008 0.005,0.00116 0.0186,0.00425 0.0139,0.0026 -0.0121,-0.00419 -0.0244,-0.00737 -0.037,-0.010601 z m 0.25178,0.037041 c 0.002,8.673e-4 0.004,0.00256 0.006,0.00118 0.001,-6.072e-4 -9.4e-4,-7.97e-4 -0.002,-0.00146 -0.001,-1.355e-4 -0.004,2.483e-4 -0.005,2.445e-4 z m 2.13124,-1.4529452 c -3.1e-4,0.00156 -4.6e-4,0.00592 -4.7e-4,0.00667 4e-5,7.426e-4 4.5e-4,0.00141 0.002,0.00191 -1e-4,-0.0026 -2.3e-4,-0.00529 -3.3e-4,-0.00798 z m 2.87236,-0.5123685 c 0.002,0.018945 0.004,0.037797 0.005,0.056829 0.002,0.043955 0.008,0.087196 0.008,0.1313721 2.4e-4,0.024046 -10e-4,0.04845 -0.004,0.072891 -0.002,0.014815 -0.0104,0.029398 -0.0105,0.044235 -2.5e-4,0.013309 0.006,0.025244 0.009,0.037617 -0.0323,0.152107 0.004,-0.038258 -0.006,0.1070158 -0.002,0.028634 -0.0111,0.057596 -0.0144,0.086359 -0.002,0.020937 -0.004,0.041883 -0.005,0.062737 0.10058,0.037272 0.16682,0.14563 0.17663,0.3693223 0.001,0.025331 4.2e-4,0.050968 0.002,0.076298 l -0.003,0.028763 0.48325,-0.5975296 z m -2.61066,4.3188948 c 0.003,-6.289e-4 0.007,-1.536e-4 0.0101,-2.704e-4 -0.005,0.00345 -0.008,0.00909 -0.0109,0.00951 -0.003,6.288e-4 -0.002,-0.00844 7.2e-4,-0.00929 z" />
    </clipPath>
    <linearGradient
       inkscape:collect="always"
       xlink:href="#linearGradient2653"
       id="linearGradient2000-5"
       x1="168.06386"
       y1="70.075844"
       x2="110.4794"
       y2="116.8931"
       gradientUnits="userSpaceOnUse" />
    <linearGradient
       inkscape:collect="always"
       xlink:href="#linearGradient2653"
       id="linearGradient2655"
       x1="209.95671"
       y1="-94.448647"
       x2="210.68217"
       y2="-5.4928927"
       gradientUnits="userSpaceOnUse" />
  </defs>
  <sodipodi:namedview
     id="base"
     pagecolor="#ffffff"
     bordercolor="#666666"
     borderopacity="1.0"
     inkscape:pageopacity="0.0"
     inkscape:pageshadow="2"
     inkscape:zoom="0.24748737"
     inkscape:cx="-88.893424"
     inkscape:cy="389.91888"
     inkscape:document-units="mm"
     inkscape:current-layer="layer1"
     inkscape:document-rotation="0"
     showgrid="false"
     inkscape:window-width="1366"
     inkscape:window-height="720"
     inkscape:window-x="0"
     inkscape:window-y="0"
     inkscape:window-maximized="1"
     inkscape:showpageshadow="2"
     inkscape:pagecheckerboard="0"
     inkscape:deskcolor="#d1d1d1" />
  <metadata
     id="metadata1214">
    <rdf:RDF>
      <cc:Work
         rdf:about="">
        <dc:format>image/svg+xml</dc:format>
        <dc:type
           rdf:resource="http://purl.org/dc/dcmitype/StillImage" />
        <dc:title />
      </cc:Work>
    </rdf:RDF>
  </metadata>
  <g
     inkscape:label="Layer 1"
     inkscape:groupmode="layer"
     id="layer1">
    <rect
       style="opacity:0.996842;fill:#6a51f5;fill-opacity:1;stroke:none;stroke-width:4.15759;stroke-linecap:round;stroke-linejoin:round;stroke-opacity:1;paint-order:stroke markers fill"
       id="rect861-3"
       width="56.611908"
       height="18.535145"
       x="182.53656"
       y="-15.985072"
       ry="4.3948421"
       rx="0"
       transform="matrix(0.58527716,0.8108333,-0.81127907,0.58465911,0,0)"
       inkscape:transform-center-x="-7.6661935"
       inkscape:transform-center-y="-7.4546863"
       inkscape:export-xdpi="306.9747"
       inkscape:export-ydpi="306.9747" />
    <rect
       style="opacity:0.996842;fill:url(#linearGradient2401);fill-opacity:1;stroke:none;stroke-width:4.15759;stroke-linecap:round;stroke-linejoin:round;stroke-opacity:1;paint-order:stroke markers fill"
       id="rect861-3-5"
       width="56.611908"
       height="18.535145"
       x="182.53656"
       y="-15.985072"
       ry="4.3948421"
       rx="0"
       transform="matrix(0.58527716,0.8108333,-0.81127907,0.58465911,0,0)"
       inkscape:transform-center-x="-7.6661935"
       inkscape:transform-center-y="-7.4546863"
       inkscape:export-xdpi="306.9747"
       inkscape:export-ydpi="306.9747" />
    <rect
       style="opacity:0.996842;fill:url(#linearGradient2655);fill-opacity:1;stroke:none;stroke-width:4.15759;stroke-linecap:round;stroke-linejoin:round;stroke-opacity:1;paint-order:stroke markers fill"
       id="rect861-3-5-0"
       width="56.611908"
       height="18.535145"
       x="182.53656"
       y="-15.985073"
       ry="4.3948421"
       rx="0"
       transform="matrix(0.58527716,0.8108333,-0.81127907,0.58465911,0,0)"
       inkscape:transform-center-x="-7.6661935"
       inkscape:transform-center-y="-7.4546863"
       inkscape:export-xdpi="306.9747"
       inkscape:export-ydpi="306.9747" />
    <path
       id="path839"
       style="opacity:0.996842;fill:#6a51f5;fill-opacity:1;stroke:none;stroke-width:3.75497;stroke-linecap:round;stroke-linejoin:round;stroke-opacity:1;paint-order:stroke markers fill"
       d="m 96.134098,84.525785 a 35.718736,35.718736 0 0 0 -2.88866,0.12096 35.718736,35.718736 0 0 0 -32.724095,37.559655 35.718736,35.718736 0 0 0 36.646355,33.74347 35.718736,35.718736 0 0 0 34.737612,-35.70525 l -0.21538,-3.91773 A 35.718736,35.718736 0 0 0 96.134098,84.525785 Z m 0.25031,8.10648 a 27.676107,27.676107 0 0 1 27.499162,24.640905 l 0.16687,3.03548 a 27.676107,27.676107 0 0 1 -26.915732,27.6654 27.676107,27.676107 0 0 1 -28.39434,-26.14539 27.676107,27.676107 0 0 1 25.35562,-29.102605 27.676107,27.676107 0 0 1 2.28842,-0.0938 z"
       inkscape:export-xdpi="306.9747"
       inkscape:export-ydpi="306.9747" />
    <rect
       style="opacity:0.996842;fill:#6a51f5;fill-opacity:1;stroke:none;stroke-width:0.480104;stroke-linecap:round;stroke-linejoin:round;stroke-miterlimit:4;stroke-dasharray:none;stroke-opacity:1;paint-order:stroke markers fill"
       id="rect1047"
       width="1.909634"
       height="4.5656848"
       x="83.209381"
       y="116.83881"
       ry="1.027279"
       inkscape:export-xdpi="306.9747"
       inkscape:export-ydpi="306.9747" />
    <rect
       style="opacity:0.996842;fill:#6a51f5;fill-opacity:1;stroke:none;stroke-width:0.480104;stroke-linecap:round;stroke-linejoin:round;stroke-miterlimit:4;stroke-dasharray:none;stroke-opacity:1;paint-order:stroke markers fill"
       id="rect1047-0"
       width="1.909634"
       height="4.5656848"
       x="83.209381"
       y="122.93434"
       ry="1.027279"
       inkscape:export-xdpi="306.9747"
       inkscape:export-ydpi="306.9747" />
    <rect
       style="opacity:0.996842;fill:#6a51f5;fill-opacity:1;stroke:none;stroke-width:0.480576;stroke-linecap:round;stroke-linejoin:round;stroke-miterlimit:4;stroke-dasharray:none;stroke-opacity:1;paint-order:stroke markers fill"
       id="rect1047-0-7"
       width="1.9979216"
       height="4.3725214"
       x="-51.964745"
       y="141.87383"
       ry="0.98381722"
       transform="matrix(0.55298614,-0.83319045,0.79690038,0.60411074,0,0)"
       inkscape:transform-center-y="-0.17481507"
       inkscape:transform-center-x="0.047835282"
       inkscape:export-xdpi="306.9747"
       inkscape:export-ydpi="306.9747" />
    <rect
       style="opacity:0.996842;fill:#6a51f5;fill-opacity:1;stroke:none;stroke-width:0.480104;stroke-linecap:round;stroke-linejoin:round;stroke-miterlimit:4;stroke-dasharray:none;stroke-opacity:1;paint-order:stroke markers fill"
       id="rect1047-0-2"
       width="2.0408967"
       height="4.272038"
       x="-132.38446"
       y="88.446671"
       ry="0.96120846"
       transform="matrix(-0.00358186,-0.99999359,0.99999163,-0.00409118,0,0)"
       inkscape:export-xdpi="306.9747"
       inkscape:export-ydpi="306.9747" />
    <rect
       style="opacity:0.996842;fill:#6a51f5;fill-opacity:1;stroke:none;stroke-width:0.480104;stroke-linecap:round;stroke-linejoin:round;stroke-miterlimit:4;stroke-dasharray:none;stroke-opacity:1;paint-order:stroke markers fill"
       id="rect1047-7"
       width="1.909634"
       height="4.5656848"
       x="-98.888268"
       y="116.8213"
       ry="1.027279"
       transform="scale(-1,1)"
       inkscape:export-xdpi="306.9747"
       inkscape:export-ydpi="306.9747" />
    <rect
       style="opacity:0.996842;fill:#6a51f5;fill-opacity:1;stroke:none;stroke-width:0.480104;stroke-linecap:round;stroke-linejoin:round;stroke-miterlimit:4;stroke-dasharray:none;stroke-opacity:1;paint-order:stroke markers fill"
       id="rect1047-0-1"
       width="1.909634"
       height="4.5656848"
       x="-98.888268"
       y="122.91687"
       ry="1.027279"
       transform="scale(-1,1)"
       inkscape:export-xdpi="306.9747"
       inkscape:export-ydpi="306.9747" />
    <rect
       style="opacity:0.996842;fill:#6a51f5;fill-opacity:1;stroke:none;stroke-width:0.480576;stroke-linecap:round;stroke-linejoin:round;stroke-miterlimit:4;stroke-dasharray:none;stroke-opacity:1;paint-order:stroke markers fill"
       id="rect1047-0-7-7"
       width="1.9979216"
       height="4.3725214"
       x="-162.17458"
       y="-10.15663"
       ry="0.98381722"
       transform="matrix(-0.55298614,-0.83319045,-0.79690038,0.60411074,0,0)"
       inkscape:transform-center-y="-0.17479972"
       inkscape:transform-center-x="-0.047828191"
       inkscape:export-xdpi="306.9747"
       inkscape:export-ydpi="306.9747" />
    <rect
       style="opacity:0.996842;fill:#6a51f5;fill-opacity:1;stroke:none;stroke-width:0.480104;stroke-linecap:round;stroke-linejoin:round;stroke-miterlimit:4;stroke-dasharray:none;stroke-opacity:1;paint-order:stroke markers fill"
       id="rect1047-4"
       width="1.909634"
       height="4.5656848"
       x="-112.6984"
       y="-127.39374"
       ry="1.027279"
       transform="scale(-1)"
       inkscape:export-xdpi="306.9747"
       inkscape:export-ydpi="306.9747" />
    <rect
       style="opacity:0.996842;fill:#6a51f5;fill-opacity:1;stroke:none;stroke-width:0.480104;stroke-linecap:round;stroke-linejoin:round;stroke-miterlimit:4;stroke-dasharray:none;stroke-opacity:1;paint-order:stroke markers fill"
       id="rect1047-0-18"
       width="1.909634"
       height="4.5656848"
       x="-112.6984"
       y="-121.2982"
       ry="1.027279"
       transform="scale(-1)"
       inkscape:export-xdpi="306.9747"
       inkscape:export-ydpi="306.9747" />
    <rect
       style="opacity:0.996842;fill:#6a51f5;fill-opacity:1;stroke:none;stroke-width:0.480576;stroke-linecap:round;stroke-linejoin:round;stroke-miterlimit:4;stroke-dasharray:none;stroke-opacity:1;paint-order:stroke markers fill"
       id="rect1047-0-7-6"
       width="1.9979216"
       height="4.3725214"
       x="24.464455"
       y="-156.99921"
       ry="0.98381722"
       transform="matrix(-0.55298614,0.83319045,-0.79690038,-0.60411074,0,0)"
       inkscape:transform-center-y="0.17480391"
       inkscape:transform-center-x="-0.047823792"
       inkscape:export-xdpi="306.9747"
       inkscape:export-ydpi="306.9747" />
    <rect
       style="opacity:0.996842;fill:#6a51f5;fill-opacity:1;stroke:none;stroke-width:0.480576;stroke-linecap:round;stroke-linejoin:round;stroke-miterlimit:4;stroke-dasharray:none;stroke-opacity:1;paint-order:stroke markers fill"
       id="rect1047-0-7-8"
       width="1.9979216"
       height="4.3725214"
       x="-153.13536"
       y="-22.199762"
       ry="0.98381722"
       transform="matrix(-0.55298614,-0.83319045,-0.79690038,0.60411074,0,0)"
       inkscape:transform-center-y="-0.1748076"
       inkscape:transform-center-x="-0.047822821"
       inkscape:export-xdpi="306.9747"
       inkscape:export-ydpi="306.9747" />
    <rect
       style="opacity:0.996842;fill:#6a51f5;fill-opacity:1;stroke:none;stroke-width:0.480104;stroke-linecap:round;stroke-linejoin:round;stroke-miterlimit:4;stroke-dasharray:none;stroke-opacity:1;paint-order:stroke markers fill"
       id="rect1047-0-2-1"
       width="2.0408967"
       height="4.272038"
       x="-114.68841"
       y="102.313"
       ry="0.96120846"
       transform="matrix(-0.00358186,-0.99999359,0.99999163,-0.00409118,0,0)"
       inkscape:export-xdpi="306.9747"
       inkscape:export-ydpi="306.9747" />
    <path
       id="path1122"
       style="color:#000000;font-style:normal;font-variant:normal;font-weight:normal;font-stretch:normal;font-size:medium;line-height:normal;font-family:sans-serif;font-variant-ligatures:normal;font-variant-position:normal;font-variant-caps:normal;font-variant-numeric:normal;font-variant-alternates:normal;font-variant-east-asian:normal;font-feature-settings:normal;font-variation-settings:normal;text-indent:0;text-align:start;text-decoration:none;text-decoration-line:none;text-decoration-style:solid;text-decoration-color:#000000;letter-spacing:normal;word-spacing:normal;text-transform:none;writing-mode:lr-tb;direction:ltr;text-orientation:mixed;dominant-baseline:auto;baseline-shift:baseline;text-anchor:start;white-space:normal;shape-padding:0;shape-margin:0;inline-size:0;clip-rule:nonzero;display:inline;overflow:visible;visibility:visible;opacity:0.996842;isolation:auto;mix-blend-mode:normal;color-interpolation:sRGB;color-interpolation-filters:linearRGB;solid-color:#000000;solid-opacity:1;vector-effect:none;fill:#6a51f5;fill-opacity:1;fill-rule:nonzero;stroke:none;stroke-width:1.087;stroke-linecap:round;stroke-linejoin:round;stroke-miterlimit:4;stroke-dasharray:none;stroke-dashoffset:0;stroke-opacity:1;paint-order:stroke markers fill;color-rendering:auto;image-rendering:auto;shape-rendering:auto;text-rendering:auto;enable-background:accumulate;stop-color:#000000"
       d="m 111.74643,128.6613 a 3.2459952,3.4691188 0 0 0 -0.11327,0.002 l -1.38442,2.57269 -1.37789,2.56075 a 3.2459952,3.4691188 0 0 0 0.0574,0.10709 l 2.78049,-0.61404 2.80238,0.60856 a 3.2459952,3.4691188 0 0 0 0.0476,-0.0891 l -1.39886,-2.57867 -1.39326,-2.56822 a 3.2459952,3.4691188 0 0 0 -0.02,-5.1e-4 z"
       inkscape:export-xdpi="306.9747"
       inkscape:export-ydpi="306.9747" />
    <path
       sodipodi:type="star"
       style="fill:#6a51f5;fill-opacity:1;stroke:#6a51f5;stroke-width:2.30356;stroke-linecap:round;stroke-linejoin:round;stroke-miterlimit:4;stroke-dasharray:none;stroke-opacity:1;paint-order:stroke markers fill"
       id="path995-1"
       sodipodi:sides="3"
       sodipodi:cx="100.18152"
       sodipodi:cy="130.69797"
       sodipodi:r1="6.2969751"
       sodipodi:r2="5.7269354"
       sodipodi:arg1="1.4886177"
       sodipodi:arg2="2.5358153"
       inkscape:flatsided="true"
       inkscape:rounded="0"
       inkscape:randomized="0"
       inkscape:transform-center-x="1.5849071"
       inkscape:transform-center-y="-0.21361838"
       transform="matrix(0.95141548,0.04491829,-0.04811668,0.88817346,-4.879912,-11.664692)"
       d="m 100.69841,136.97369 -6.210275,-8.96594 10.869875,-0.89529 z"
       inkscape:export-xdpi="306.9747"
       inkscape:export-ydpi="306.9747" />
    <path
       id="path867-5-2-2-6"
       style="fill:#6a51f5;fill-opacity:1;stroke:none;stroke-width:2.26773;stroke-linecap:round;stroke-linejoin:round;stroke-opacity:1;paint-order:stroke markers fill"
       d="m 87.064326,102.86847 c -1.87242,0.56158 -2.50667,1.83309 -4.38727,3.56234 l 7.37077,0.26118 c 0.80431,-1.02673 0.10905,-3.50341 -1.45137,-3.76449 -0.70333,-0.12796 -1.05733,-0.12204 -1.53213,-0.059 z"
       sodipodi:nodetypes="ccccc"
       inkscape:export-xdpi="306.9747"
       inkscape:export-ydpi="306.9747" />
    <path
       id="path867-5-2-2-8-3"
       style="fill:#6a51f5;fill-opacity:1;stroke:none;stroke-width:2.26773;stroke-linecap:round;stroke-linejoin:round;stroke-opacity:1;paint-order:stroke markers fill"
       d="m 80.914572,102.86363 c 1.872424,0.56159 2.506674,1.83308 4.387284,3.56233 l -7.370773,0.26117 c -0.804333,-1.02672 -0.109055,-3.5034 1.451354,-3.76448 0.703356,-0.12796 1.057355,-0.12204 1.532135,-0.059 z"
       sodipodi:nodetypes="ccccc"
       inkscape:export-xdpi="306.9747"
       inkscape:export-ydpi="306.9747" />
    <path
       id="path839-1"
       style="opacity:0.996842;fill:url(#linearGradient2000);fill-opacity:1;fill-rule:nonzero;stroke:none;stroke-width:3.75497;stroke-linecap:round;stroke-linejoin:round;stroke-opacity:1;paint-order:stroke markers fill"
       d="m 96.13407,84.525736 a 35.718736,35.718736 0 0 0 -2.88866,0.12096 35.718736,35.718736 0 0 0 -32.724095,37.559684 35.718736,35.718736 0 0 0 36.646355,33.74347 35.718736,35.718736 0 0 0 34.73763,-35.70525 l -0.21538,-3.91773 A 35.718736,35.718736 0 0 0 96.13407,84.525736 Z m 0.25031,8.10648 a 27.676107,27.676107 0 0 1 27.49918,24.640934 l 0.16687,3.03548 a 27.676107,27.676107 0 0 1 -26.91575,27.6654 27.676107,27.676107 0 0 1 -28.39434,-26.14539 27.676107,27.676107 0 0 1 25.35562,-29.102634 27.676107,27.676107 0 0 1 2.28842,-0.0938 z"
       inkscape:export-xdpi="306.9747"
       inkscape:export-ydpi="306.9747" />
    <rect
       style="opacity:0.996842;fill:url(#linearGradient2380);fill-opacity:1;stroke:none;stroke-width:4.18721;stroke-linecap:round;stroke-linejoin:round;stroke-opacity:1;paint-order:stroke markers fill"
       id="rect861-3-5-6"
       width="16.735167"
       height="4.3764653"
       x="129.43245"
       y="-10.491864"
       ry="1.0376976"
       rx="0"
       transform="matrix(0.54532523,0.83822455,-0.73514874,0.67790584,-2.9214771e-5,-3.9334918e-5)"
       inkscape:transform-center-x="-1.583925"
       inkscape:transform-center-y="-2.0812936"
       clip-path="url(#clipPath2497)"
       inkscape:export-xdpi="306.9747"
       inkscape:export-ydpi="306.9747" />
    <path
       id="path839-1-3"
       style="opacity:0.996842;fill:url(#linearGradient2000-5);fill-opacity:1;fill-rule:nonzero;stroke:none;stroke-width:3.75497;stroke-linecap:round;stroke-linejoin:round;stroke-opacity:1;paint-order:stroke markers fill"
       d="m 96.045632,84.361281 a 35.718736,35.718736 0 0 0 -2.88866,0.12096 35.718736,35.718736 0 0 0 -32.72409,37.559679 35.718736,35.718736 0 0 0 36.64635,33.74347 35.718736,35.718736 0 0 0 34.737628,-35.70525 l -0.21538,-3.91772 A 35.718736,35.718736 0 0 0 96.045632,84.361281 Z m 0.25031,8.10648 A 27.676107,27.676107 0 0 1 123.79512,117.1087 l 0.16687,3.03547 a 27.676107,27.676107 0 0 1 -26.915748,27.6654 27.676107,27.676107 0 0 1 -28.39434,-26.14539 27.676107,27.676107 0 0 1 25.35562,-29.102629 27.676107,27.676107 0 0 1 2.28842,-0.0938 z"
       inkscape:export-xdpi="306.9747"
       inkscape:export-ydpi="306.9747" />
  </g>
</svg>
